<svg xmlns="http://www.w3.org/2000/svg" xmlns:xlink="http://www.w3.org/1999/xlink" width="140" zoomAndPan="magnify" viewBox="0 0 104.88 30.000001" height="40" preserveAspectRatio="xMidYMid meet" version="1.2"><defs/><g id="870faff349"><g style="fill:#f9aa0c;fill-opacity:1;"><g transform="translate(3.836538, 18.012927)"><path style="stroke:none" d="M 8.875 -4.828125 C 8.875 -5.242188 8.769531 -5.632812 8.5625 -6 C 8.363281 -6.363281 8.09375 -6.660156 7.75 -6.890625 C 7.40625 -7.117188 7.015625 -7.234375 6.578125 -7.234375 C 6.140625 -7.234375 5.75 -7.117188 5.40625 -6.890625 C 5.0625 -6.660156 4.785156 -6.363281 4.578125 -6 C 4.378906 -5.632812 4.28125 -5.242188 4.28125 -4.828125 C 4.28125 -4.398438 4.378906 -4.003906 4.578125 -3.640625 C 4.785156 -3.273438 5.0625 -2.976562 5.40625 -2.75 C 5.75 -2.519531 6.140625 -2.40625 6.578125 -2.40625 C 7.015625 -2.40625 7.40625 -2.519531 7.75 -2.75 C 8.09375 -2.976562 8.363281 -3.273438 8.5625 -3.640625 C 8.769531 -4.003906 8.875 -4.398438 8.875 -4.828125 Z M 12.171875 -16.4375 L 12.171875 0 L 8.875 0 L 8.875 -1.15625 C 8.550781 -0.664062 8.070312 -0.3125 7.4375 -0.09375 C 6.800781 0.113281 6.175781 0.21875 5.5625 0.21875 C 4.65625 0.21875 3.835938 -0.015625 3.109375 -0.484375 C 2.378906 -0.953125 1.804688 -1.566406 1.390625 -2.328125 C 0.972656 -3.097656 0.765625 -3.929688 0.765625 -4.828125 C 0.765625 -5.710938 0.972656 -6.539062 1.390625 -7.3125 C 1.804688 -8.082031 2.378906 -8.703125 3.109375 -9.171875 C 3.835938 -9.648438 4.65625 -9.890625 5.5625 -9.890625 C 6.175781 -9.890625 6.773438 -9.785156 7.359375 -9.578125 C 7.953125 -9.367188 8.457031 -9.003906 8.875 -8.484375 L 8.875 -16.4375 Z M 12.171875 -16.4375 "/></g></g><g style="fill:#f9aa0c;fill-opacity:1;"><g transform="translate(16.001133, 18.012927)"><path style="stroke:none" d="M 11.203125 -5.484375 L 11.203125 0 L 7.90625 0 L 7.90625 -5.484375 C 7.90625 -6.046875 7.789062 -6.476562 7.5625 -6.78125 C 7.332031 -7.082031 6.957031 -7.234375 6.4375 -7.234375 C 5.925781 -7.234375 5.492188 -6.992188 5.140625 -6.515625 C 4.785156 -6.046875 4.609375 -5.484375 4.609375 -4.828125 L 4.609375 0 L 1.3125 0 L 1.3125 -16.4375 L 4.609375 -16.4375 L 4.609375 -8.484375 C 4.941406 -8.910156 5.359375 -9.25 5.859375 -9.5 C 6.367188 -9.757812 6.9375 -9.890625 7.5625 -9.890625 C 8.863281 -9.890625 9.796875 -9.484375 10.359375 -8.671875 C 10.921875 -7.859375 11.203125 -6.796875 11.203125 -5.484375 Z M 11.203125 -5.484375 "/></g></g><g style="fill:#f9aa0c;fill-opacity:1;"><g transform="translate(26.872545, 18.012927)"><path style="stroke:none" d="M 8.875 -4.828125 C 8.875 -5.242188 8.769531 -5.632812 8.5625 -6 C 8.363281 -6.363281 8.09375 -6.660156 7.75 -6.890625 C 7.40625 -7.117188 7.015625 -7.234375 6.578125 -7.234375 C 6.140625 -7.234375 5.75 -7.117188 5.40625 -6.890625 C 5.0625 -6.660156 4.785156 -6.363281 4.578125 -6 C 4.378906 -5.632812 4.28125 -5.242188 4.28125 -4.828125 C 4.28125 -4.398438 4.378906 -4.003906 4.578125 -3.640625 C 4.785156 -3.273438 5.0625 -2.976562 5.40625 -2.75 C 5.75 -2.519531 6.140625 -2.40625 6.578125 -2.40625 C 7.015625 -2.40625 7.40625 -2.519531 7.75 -2.75 C 8.09375 -2.976562 8.363281 -3.273438 8.5625 -3.640625 C 8.769531 -4.003906 8.875 -4.398438 8.875 -4.828125 Z M 12.171875 -9.640625 L 12.171875 0 L 8.875 0 L 8.875 -1.15625 C 8.550781 -0.664062 8.070312 -0.3125 7.4375 -0.09375 C 6.800781 0.113281 6.175781 0.21875 5.5625 0.21875 C 4.65625 0.21875 3.835938 -0.015625 3.109375 -0.484375 C 2.378906 -0.953125 1.804688 -1.566406 1.390625 -2.328125 C 0.972656 -3.097656 0.765625 -3.929688 0.765625 -4.828125 C 0.765625 -5.710938 0.972656 -6.539062 1.390625 -7.3125 C 1.804688 -8.082031 2.378906 -8.703125 3.109375 -9.171875 C 3.835938 -9.648438 4.65625 -9.890625 5.5625 -9.890625 C 6.175781 -9.890625 6.773438 -9.785156 7.359375 -9.578125 C 7.953125 -9.367188 8.457031 -9.003906 8.875 -8.484375 L 8.875 -9.640625 Z M 12.171875 -9.640625 "/></g></g><g style="fill:#f9aa0c;fill-opacity:1;"><g transform="translate(39.03714, 18.012927)"><path style="stroke:none" d="M 4.609375 -4.28125 L 4.609375 0 L 1.3125 0 L 1.3125 -16.4375 L 4.609375 -16.4375 L 4.609375 -5.828125 L 7.6875 -9.671875 L 11.765625 -9.671875 L 7.609375 -5.0625 L 12.203125 0 L 8 0 Z M 4.609375 -4.28125 "/></g></g><g style="fill:#f9aa0c;fill-opacity:1;"><g transform="translate(49.272916, 18.012927)"><path style="stroke:none" d="M 8.875 -4.828125 C 8.875 -5.242188 8.769531 -5.632812 8.5625 -6 C 8.363281 -6.363281 8.09375 -6.660156 7.75 -6.890625 C 7.40625 -7.117188 7.015625 -7.234375 6.578125 -7.234375 C 6.140625 -7.234375 5.75 -7.117188 5.40625 -6.890625 C 5.0625 -6.660156 4.785156 -6.363281 4.578125 -6 C 4.378906 -5.632812 4.28125 -5.242188 4.28125 -4.828125 C 4.28125 -4.398438 4.378906 -4.003906 4.578125 -3.640625 C 4.785156 -3.273438 5.0625 -2.976562 5.40625 -2.75 C 5.75 -2.519531 6.140625 -2.40625 6.578125 -2.40625 C 7.015625 -2.40625 7.40625 -2.519531 7.75 -2.75 C 8.09375 -2.976562 8.363281 -3.273438 8.5625 -3.640625 C 8.769531 -4.003906 8.875 -4.398438 8.875 -4.828125 Z M 12.171875 -9.640625 L 12.171875 0 L 8.875 0 L 8.875 -1.15625 C 8.550781 -0.664062 8.070312 -0.3125 7.4375 -0.09375 C 6.800781 0.113281 6.175781 0.21875 5.5625 0.21875 C 4.65625 0.21875 3.835938 -0.015625 3.109375 -0.484375 C 2.378906 -0.953125 1.804688 -1.566406 1.390625 -2.328125 C 0.972656 -3.097656 0.765625 -3.929688 0.765625 -4.828125 C 0.765625 -5.710938 0.972656 -6.539062 1.390625 -7.3125 C 1.804688 -8.082031 2.378906 -8.703125 3.109375 -9.171875 C 3.835938 -9.648438 4.65625 -9.890625 5.5625 -9.890625 C 6.175781 -9.890625 6.773438 -9.785156 7.359375 -9.578125 C 7.953125 -9.367188 8.457031 -9.003906 8.875 -8.484375 L 8.875 -9.640625 Z M 12.171875 -9.640625 "/></g></g><g style="fill:#f9aa0c;fill-opacity:1;"><g transform="translate(61.437511, 18.012927)"><path style="stroke:none" d=""/></g></g><g style="fill:#f9aa0c;fill-opacity:1;"><g transform="translate(65.601887, 18.012927)"><path style="stroke:none" d="M 4.609375 -4.828125 C 4.609375 -4.398438 4.707031 -4.003906 4.90625 -3.640625 C 5.113281 -3.273438 5.390625 -2.976562 5.734375 -2.75 C 6.078125 -2.519531 6.46875 -2.40625 6.90625 -2.40625 C 7.34375 -2.40625 7.734375 -2.519531 8.078125 -2.75 C 8.421875 -2.976562 8.691406 -3.273438 8.890625 -3.640625 C 9.097656 -4.003906 9.203125 -4.398438 9.203125 -4.828125 C 9.203125 -5.242188 9.097656 -5.632812 8.890625 -6 C 8.691406 -6.363281 8.421875 -6.660156 8.078125 -6.890625 C 7.734375 -7.117188 7.34375 -7.234375 6.90625 -7.234375 C 6.46875 -7.234375 6.078125 -7.117188 5.734375 -6.890625 C 5.390625 -6.660156 5.113281 -6.363281 4.90625 -6 C 4.707031 -5.632812 4.609375 -5.242188 4.609375 -4.828125 Z M 4.609375 0 L 1.3125 0 L 1.3125 -16.4375 L 4.609375 -16.4375 L 4.609375 -8.484375 C 5.023438 -9.003906 5.519531 -9.367188 6.09375 -9.578125 C 6.675781 -9.785156 7.28125 -9.890625 7.90625 -9.890625 C 8.832031 -9.890625 9.65625 -9.648438 10.375 -9.171875 C 11.101562 -8.703125 11.675781 -8.082031 12.09375 -7.3125 C 12.507812 -6.539062 12.71875 -5.710938 12.71875 -4.828125 C 12.71875 -3.929688 12.507812 -3.097656 12.09375 -2.328125 C 11.675781 -1.566406 11.101562 -0.953125 10.375 -0.484375 C 9.65625 -0.015625 8.832031 0.21875 7.90625 0.21875 C 7.28125 0.21875 6.65625 0.113281 6.03125 -0.09375 C 5.414062 -0.3125 4.941406 -0.664062 4.609375 -1.15625 Z M 4.609375 0 "/></g></g><g style="fill:#f9aa0c;fill-opacity:1;"><g transform="translate(77.766486, 18.012927)"><path style="stroke:none" d="M 1.140625 -12.984375 C 1.140625 -13.515625 1.328125 -13.96875 1.703125 -14.34375 C 2.078125 -14.71875 2.53125 -14.90625 3.0625 -14.90625 C 3.59375 -14.90625 4.046875 -14.71875 4.421875 -14.34375 C 4.804688 -13.96875 5 -13.515625 5 -12.984375 C 5 -12.453125 4.804688 -11.992188 4.421875 -11.609375 C 4.046875 -11.234375 3.59375 -11.046875 3.0625 -11.046875 C 2.53125 -11.046875 2.078125 -11.234375 1.703125 -11.609375 C 1.328125 -11.992188 1.140625 -12.453125 1.140625 -12.984375 Z M 4.71875 0 L 1.421875 0 L 1.421875 -9.671875 L 4.71875 -9.671875 Z M 4.71875 0 "/></g></g><g style="fill:#f9aa0c;fill-opacity:1;"><g transform="translate(82.588405, 18.012927)"><path style="stroke:none" d="M 5.453125 -7.125 L 5.453125 0 L 2.1875 0 L 2.1875 -7.125 L 0.4375 -7.125 L 0.4375 -9.671875 L 2.1875 -9.671875 L 2.1875 -13.34375 L 5.453125 -13.34375 L 5.453125 -9.671875 L 7.21875 -9.671875 L 7.21875 -7.125 Z M 5.453125 -7.125 "/></g></g><g style="fill:#f9aa0c;fill-opacity:1;"><g transform="translate(88.922706, 18.012927)"><path style="stroke:none" d="M 4.296875 -5.984375 L 8.609375 -5.984375 C 8.609375 -5.984375 8.585938 -6.070312 8.546875 -6.25 C 8.515625 -6.4375 8.429688 -6.644531 8.296875 -6.875 C 8.160156 -7.113281 7.945312 -7.320312 7.65625 -7.5 C 7.363281 -7.6875 6.96875 -7.78125 6.46875 -7.78125 C 5.957031 -7.78125 5.554688 -7.6875 5.265625 -7.5 C 4.972656 -7.320312 4.753906 -7.113281 4.609375 -6.875 C 4.472656 -6.644531 4.382812 -6.4375 4.34375 -6.25 C 4.3125 -6.070312 4.296875 -5.984375 4.296875 -5.984375 Z M 11.765625 -5.046875 C 11.765625 -4.941406 11.757812 -4.835938 11.75 -4.734375 C 11.75 -4.628906 11.75 -4.523438 11.75 -4.421875 L 4.25 -4.421875 C 4.25 -4.054688 4.332031 -3.695312 4.5 -3.34375 C 4.664062 -2.988281 4.90625 -2.695312 5.21875 -2.46875 C 5.539062 -2.238281 5.910156 -2.125 6.328125 -2.125 C 6.921875 -2.125 7.382812 -2.28125 7.71875 -2.59375 C 8.050781 -2.90625 8.226562 -3.238281 8.25 -3.59375 L 11.59375 -3.59375 C 11.320312 -2.320312 10.707031 -1.367188 9.75 -0.734375 C 8.800781 -0.0976562 7.6875 0.21875 6.40625 0.21875 C 5.289062 0.21875 4.304688 0.0078125 3.453125 -0.40625 C 2.609375 -0.820312 1.945312 -1.40625 1.46875 -2.15625 C 1 -2.90625 0.765625 -3.796875 0.765625 -4.828125 C 0.765625 -5.828125 1.007812 -6.707031 1.5 -7.46875 C 1.988281 -8.226562 2.65625 -8.820312 3.5 -9.25 C 4.351562 -9.675781 5.320312 -9.890625 6.40625 -9.890625 C 7.382812 -9.890625 8.273438 -9.695312 9.078125 -9.3125 C 9.890625 -8.9375 10.539062 -8.390625 11.03125 -7.671875 C 11.519531 -6.953125 11.765625 -6.078125 11.765625 -5.046875 Z M 11.765625 -5.046875 "/></g></g><g style="fill:#00bf63;fill-opacity:1;"><g transform="translate(11.153164, 25.803075)"><path style="stroke:none" d="M 2.59375 -1.953125 L 2.59375 0 L 1.953125 0 L 1.953125 -1.953125 L 0.15625 -4.703125 L 0.84375 -4.703125 L 2.28125 -2.453125 L 3.703125 -4.703125 L 4.40625 -4.703125 Z M 2.59375 -1.953125 "/></g></g><g style="fill:#00bf63;fill-opacity:1;"><g transform="translate(15.434326, 25.803075)"><path style="stroke:none" d="M 3.515625 -1.8125 C 3.515625 -1.175781 3.375 -0.703125 3.09375 -0.390625 C 2.8125 -0.0859375 2.410156 0.0625 1.890625 0.0625 C 1.359375 0.0625 0.957031 -0.09375 0.6875 -0.40625 C 0.414062 -0.726562 0.28125 -1.195312 0.28125 -1.8125 C 0.28125 -3.050781 0.820312 -3.671875 1.90625 -3.671875 C 2.457031 -3.671875 2.863281 -3.519531 3.125 -3.21875 C 3.382812 -2.914062 3.515625 -2.445312 3.515625 -1.8125 Z M 2.875 -1.8125 C 2.875 -2.300781 2.800781 -2.660156 2.65625 -2.890625 C 2.507812 -3.117188 2.257812 -3.234375 1.90625 -3.234375 C 1.5625 -3.234375 1.3125 -3.117188 1.15625 -2.890625 C 1 -2.660156 0.921875 -2.300781 0.921875 -1.8125 C 0.921875 -1.332031 0.992188 -0.972656 1.140625 -0.734375 C 1.296875 -0.492188 1.539062 -0.375 1.875 -0.375 C 2.238281 -0.375 2.492188 -0.488281 2.640625 -0.71875 C 2.796875 -0.945312 2.875 -1.3125 2.875 -1.8125 Z M 2.875 -1.8125 "/></g></g><g style="fill:#00bf63;fill-opacity:1;"><g transform="translate(18.958634, 25.803075)"><path style="stroke:none" d="M 1.046875 -3.609375 L 1.046875 -1.3125 C 1.046875 -1.082031 1.066406 -0.898438 1.109375 -0.765625 C 1.160156 -0.628906 1.238281 -0.53125 1.34375 -0.46875 C 1.445312 -0.414062 1.597656 -0.390625 1.796875 -0.390625 C 2.078125 -0.390625 2.300781 -0.488281 2.46875 -0.6875 C 2.632812 -0.882812 2.71875 -1.160156 2.71875 -1.515625 L 2.71875 -3.609375 L 3.328125 -3.609375 L 3.328125 -0.765625 C 3.328125 -0.347656 3.332031 -0.09375 3.34375 0 L 2.78125 0 C 2.78125 -0.0078125 2.773438 -0.0351562 2.765625 -0.078125 C 2.765625 -0.128906 2.757812 -0.1875 2.75 -0.25 C 2.75 -0.320312 2.75 -0.441406 2.75 -0.609375 L 2.734375 -0.609375 C 2.597656 -0.367188 2.4375 -0.195312 2.25 -0.09375 C 2.070312 0.0078125 1.851562 0.0625 1.59375 0.0625 C 1.195312 0.0625 0.90625 -0.0351562 0.71875 -0.234375 C 0.53125 -0.429688 0.4375 -0.753906 0.4375 -1.203125 L 0.4375 -3.609375 Z M 1.046875 -3.609375 "/></g></g><g style="fill:#00bf63;fill-opacity:1;"><g transform="translate(22.482941, 25.803075)"><path style="stroke:none" d="M 0.46875 0 L 0.46875 -2.765625 C 0.46875 -3.015625 0.460938 -3.296875 0.453125 -3.609375 L 1.015625 -3.609375 C 1.035156 -3.203125 1.046875 -2.957031 1.046875 -2.875 L 1.0625 -2.875 C 1.15625 -3.175781 1.265625 -3.382812 1.390625 -3.5 C 1.515625 -3.613281 1.691406 -3.671875 1.921875 -3.671875 C 1.992188 -3.671875 2.070312 -3.660156 2.15625 -3.640625 L 2.15625 -3.09375 C 2.082031 -3.113281 1.976562 -3.125 1.84375 -3.125 C 1.59375 -3.125 1.398438 -3.015625 1.265625 -2.796875 C 1.140625 -2.585938 1.078125 -2.28125 1.078125 -1.875 L 1.078125 0 Z M 0.46875 0 "/></g></g><g style="fill:#00bf63;fill-opacity:1;"><g transform="translate(24.483538, 25.803075)"><path style="stroke:none" d=""/></g></g><g style="fill:#00bf63;fill-opacity:1;"><g transform="translate(26.107374, 25.803075)"><path style="stroke:none" d="M 3.171875 -1 C 3.171875 -0.65625 3.039062 -0.390625 2.78125 -0.203125 C 2.519531 -0.0234375 2.160156 0.0625 1.703125 0.0625 C 1.253906 0.0625 0.90625 -0.0078125 0.65625 -0.15625 C 0.414062 -0.300781 0.257812 -0.53125 0.1875 -0.84375 L 0.71875 -0.953125 C 0.769531 -0.753906 0.875 -0.609375 1.03125 -0.515625 C 1.195312 -0.429688 1.421875 -0.390625 1.703125 -0.390625 C 2.003906 -0.390625 2.222656 -0.4375 2.359375 -0.53125 C 2.503906 -0.625 2.578125 -0.765625 2.578125 -0.953125 C 2.578125 -1.085938 2.53125 -1.203125 2.4375 -1.296875 C 2.34375 -1.390625 2.1875 -1.460938 1.96875 -1.515625 L 1.53125 -1.625 C 1.1875 -1.71875 0.941406 -1.804688 0.796875 -1.890625 C 0.648438 -1.972656 0.535156 -2.078125 0.453125 -2.203125 C 0.367188 -2.328125 0.328125 -2.476562 0.328125 -2.65625 C 0.328125 -2.976562 0.441406 -3.226562 0.671875 -3.40625 C 0.910156 -3.582031 1.253906 -3.671875 1.703125 -3.671875 C 2.109375 -3.671875 2.425781 -3.597656 2.65625 -3.453125 C 2.894531 -3.316406 3.046875 -3.09375 3.109375 -2.78125 L 2.5625 -2.71875 C 2.53125 -2.875 2.441406 -2.992188 2.296875 -3.078125 C 2.148438 -3.160156 1.953125 -3.203125 1.703125 -3.203125 C 1.429688 -3.203125 1.234375 -3.160156 1.109375 -3.078125 C 0.984375 -3.003906 0.921875 -2.882812 0.921875 -2.71875 C 0.921875 -2.613281 0.945312 -2.523438 1 -2.453125 C 1.050781 -2.390625 1.128906 -2.332031 1.234375 -2.28125 C 1.335938 -2.238281 1.554688 -2.175781 1.890625 -2.09375 C 2.210938 -2.019531 2.441406 -1.945312 2.578125 -1.875 C 2.722656 -1.8125 2.832031 -1.738281 2.90625 -1.65625 C 2.988281 -1.570312 3.050781 -1.472656 3.09375 -1.359375 C 3.144531 -1.253906 3.171875 -1.132812 3.171875 -1 Z M 3.171875 -1 "/></g></g><g style="fill:#00bf63;fill-opacity:1;"><g transform="translate(29.248253, 25.803075)"><path style="stroke:none" d="M 1.375 0.0625 C 1.019531 0.0625 0.75 -0.03125 0.5625 -0.21875 C 0.382812 -0.40625 0.296875 -0.664062 0.296875 -1 C 0.296875 -1.375 0.414062 -1.660156 0.65625 -1.859375 C 0.90625 -2.066406 1.300781 -2.175781 1.84375 -2.1875 L 2.65625 -2.203125 L 2.65625 -2.390625 C 2.65625 -2.691406 2.59375 -2.90625 2.46875 -3.03125 C 2.34375 -3.15625 2.148438 -3.21875 1.890625 -3.21875 C 1.617188 -3.21875 1.421875 -3.171875 1.296875 -3.078125 C 1.171875 -2.984375 1.097656 -2.835938 1.078125 -2.640625 L 0.453125 -2.703125 C 0.554688 -3.347656 1.035156 -3.671875 1.890625 -3.671875 C 2.347656 -3.671875 2.691406 -3.566406 2.921875 -3.359375 C 3.148438 -3.148438 3.265625 -2.847656 3.265625 -2.453125 L 3.265625 -0.90625 C 3.265625 -0.726562 3.285156 -0.59375 3.328125 -0.5 C 3.378906 -0.414062 3.46875 -0.375 3.59375 -0.375 C 3.65625 -0.375 3.722656 -0.378906 3.796875 -0.390625 L 3.796875 -0.015625 C 3.648438 0.015625 3.492188 0.03125 3.328125 0.03125 C 3.109375 0.03125 2.945312 -0.0234375 2.84375 -0.140625 C 2.75 -0.253906 2.691406 -0.4375 2.671875 -0.6875 L 2.65625 -0.6875 C 2.5 -0.414062 2.316406 -0.222656 2.109375 -0.109375 C 1.910156 0.00390625 1.664062 0.0625 1.375 0.0625 Z M 1.515625 -0.390625 C 1.734375 -0.390625 1.925781 -0.4375 2.09375 -0.53125 C 2.269531 -0.632812 2.40625 -0.769531 2.5 -0.9375 C 2.601562 -1.113281 2.65625 -1.296875 2.65625 -1.484375 L 2.65625 -1.78125 L 2 -1.765625 C 1.71875 -1.765625 1.503906 -1.734375 1.359375 -1.671875 C 1.210938 -1.617188 1.097656 -1.535156 1.015625 -1.421875 C 0.941406 -1.316406 0.90625 -1.175781 0.90625 -1 C 0.90625 -0.800781 0.957031 -0.648438 1.0625 -0.546875 C 1.164062 -0.441406 1.316406 -0.390625 1.515625 -0.390625 Z M 1.515625 -0.390625 "/></g></g><g style="fill:#00bf63;fill-opacity:1;"><g transform="translate(32.77256, 25.803075)"><path style="stroke:none" d="M 1.84375 -0.03125 C 1.644531 0.0195312 1.441406 0.046875 1.234375 0.046875 C 0.753906 0.046875 0.515625 -0.222656 0.515625 -0.765625 L 0.515625 -3.171875 L 0.109375 -3.171875 L 0.109375 -3.609375 L 0.546875 -3.609375 L 0.71875 -4.421875 L 1.125 -4.421875 L 1.125 -3.609375 L 1.78125 -3.609375 L 1.78125 -3.171875 L 1.125 -3.171875 L 1.125 -0.890625 C 1.125 -0.722656 1.148438 -0.601562 1.203125 -0.53125 C 1.265625 -0.457031 1.363281 -0.421875 1.5 -0.421875 C 1.582031 -0.421875 1.695312 -0.4375 1.84375 -0.46875 Z M 1.84375 -0.03125 "/></g></g><g style="fill:#00bf63;fill-opacity:1;"><g transform="translate(34.396396, 25.803075)"><path style="stroke:none" d="M 0.453125 -4.375 L 0.453125 -4.953125 L 1.0625 -4.953125 L 1.0625 -4.375 Z M 0.453125 0 L 0.453125 -3.609375 L 1.0625 -3.609375 L 1.0625 0 Z M 0.453125 0 "/></g></g><g style="fill:#00bf63;fill-opacity:1;"><g transform="translate(35.640138, 25.803075)"><path style="stroke:none" d="M 3.171875 -1 C 3.171875 -0.65625 3.039062 -0.390625 2.78125 -0.203125 C 2.519531 -0.0234375 2.160156 0.0625 1.703125 0.0625 C 1.253906 0.0625 0.90625 -0.0078125 0.65625 -0.15625 C 0.414062 -0.300781 0.257812 -0.53125 0.1875 -0.84375 L 0.71875 -0.953125 C 0.769531 -0.753906 0.875 -0.609375 1.03125 -0.515625 C 1.195312 -0.429688 1.421875 -0.390625 1.703125 -0.390625 C 2.003906 -0.390625 2.222656 -0.4375 2.359375 -0.53125 C 2.503906 -0.625 2.578125 -0.765625 2.578125 -0.953125 C 2.578125 -1.085938 2.53125 -1.203125 2.4375 -1.296875 C 2.34375 -1.390625 2.1875 -1.460938 1.96875 -1.515625 L 1.53125 -1.625 C 1.1875 -1.71875 0.941406 -1.804688 0.796875 -1.890625 C 0.648438 -1.972656 0.535156 -2.078125 0.453125 -2.203125 C 0.367188 -2.328125 0.328125 -2.476562 0.328125 -2.65625 C 0.328125 -2.976562 0.441406 -3.226562 0.671875 -3.40625 C 0.910156 -3.582031 1.253906 -3.671875 1.703125 -3.671875 C 2.109375 -3.671875 2.425781 -3.597656 2.65625 -3.453125 C 2.894531 -3.316406 3.046875 -3.09375 3.109375 -2.78125 L 2.5625 -2.71875 C 2.53125 -2.875 2.441406 -2.992188 2.296875 -3.078125 C 2.148438 -3.160156 1.953125 -3.203125 1.703125 -3.203125 C 1.429688 -3.203125 1.234375 -3.160156 1.109375 -3.078125 C 0.984375 -3.003906 0.921875 -2.882812 0.921875 -2.71875 C 0.921875 -2.613281 0.945312 -2.523438 1 -2.453125 C 1.050781 -2.390625 1.128906 -2.332031 1.234375 -2.28125 C 1.335938 -2.238281 1.554688 -2.175781 1.890625 -2.09375 C 2.210938 -2.019531 2.441406 -1.945312 2.578125 -1.875 C 2.722656 -1.8125 2.832031 -1.738281 2.90625 -1.65625 C 2.988281 -1.570312 3.050781 -1.472656 3.09375 -1.359375 C 3.144531 -1.253906 3.171875 -1.132812 3.171875 -1 Z M 3.171875 -1 "/></g></g><g style="fill:#00bf63;fill-opacity:1;"><g transform="translate(38.781017, 25.803075)"><path style="stroke:none" d="M 1.203125 -3.171875 L 1.203125 0 L 0.609375 0 L 0.609375 -3.171875 L 0.09375 -3.171875 L 0.09375 -3.609375 L 0.609375 -3.609375 L 0.609375 -4.015625 C 0.609375 -4.335938 0.675781 -4.570312 0.8125 -4.71875 C 0.957031 -4.863281 1.179688 -4.9375 1.484375 -4.9375 C 1.648438 -4.9375 1.789062 -4.925781 1.90625 -4.90625 L 1.90625 -4.4375 C 1.800781 -4.457031 1.710938 -4.46875 1.640625 -4.46875 C 1.484375 -4.46875 1.367188 -4.425781 1.296875 -4.34375 C 1.234375 -4.269531 1.203125 -4.132812 1.203125 -3.9375 L 1.203125 -3.609375 L 1.90625 -3.609375 L 1.90625 -3.171875 Z M 1.203125 -3.171875 "/></g></g><g style="fill:#00bf63;fill-opacity:1;"><g transform="translate(40.404853, 25.803075)"><path style="stroke:none" d="M 1.375 0.0625 C 1.019531 0.0625 0.75 -0.03125 0.5625 -0.21875 C 0.382812 -0.40625 0.296875 -0.664062 0.296875 -1 C 0.296875 -1.375 0.414062 -1.660156 0.65625 -1.859375 C 0.90625 -2.066406 1.300781 -2.175781 1.84375 -2.1875 L 2.65625 -2.203125 L 2.65625 -2.390625 C 2.65625 -2.691406 2.59375 -2.90625 2.46875 -3.03125 C 2.34375 -3.15625 2.148438 -3.21875 1.890625 -3.21875 C 1.617188 -3.21875 1.421875 -3.171875 1.296875 -3.078125 C 1.171875 -2.984375 1.097656 -2.835938 1.078125 -2.640625 L 0.453125 -2.703125 C 0.554688 -3.347656 1.035156 -3.671875 1.890625 -3.671875 C 2.347656 -3.671875 2.691406 -3.566406 2.921875 -3.359375 C 3.148438 -3.148438 3.265625 -2.847656 3.265625 -2.453125 L 3.265625 -0.90625 C 3.265625 -0.726562 3.285156 -0.59375 3.328125 -0.5 C 3.378906 -0.414062 3.46875 -0.375 3.59375 -0.375 C 3.65625 -0.375 3.722656 -0.378906 3.796875 -0.390625 L 3.796875 -0.015625 C 3.648438 0.015625 3.492188 0.03125 3.328125 0.03125 C 3.109375 0.03125 2.945312 -0.0234375 2.84375 -0.140625 C 2.75 -0.253906 2.691406 -0.4375 2.671875 -0.6875 L 2.65625 -0.6875 C 2.5 -0.414062 2.316406 -0.222656 2.109375 -0.109375 C 1.910156 0.00390625 1.664062 0.0625 1.375 0.0625 Z M 1.515625 -0.390625 C 1.734375 -0.390625 1.925781 -0.4375 2.09375 -0.53125 C 2.269531 -0.632812 2.40625 -0.769531 2.5 -0.9375 C 2.601562 -1.113281 2.65625 -1.296875 2.65625 -1.484375 L 2.65625 -1.78125 L 2 -1.765625 C 1.71875 -1.765625 1.503906 -1.734375 1.359375 -1.671875 C 1.210938 -1.617188 1.097656 -1.535156 1.015625 -1.421875 C 0.941406 -1.316406 0.90625 -1.175781 0.90625 -1 C 0.90625 -0.800781 0.957031 -0.648438 1.0625 -0.546875 C 1.164062 -0.441406 1.316406 -0.390625 1.515625 -0.390625 Z M 1.515625 -0.390625 "/></g></g><g style="fill:#00bf63;fill-opacity:1;"><g transform="translate(43.92916, 25.803075)"><path style="stroke:none" d="M 0.921875 -1.828125 C 0.921875 -1.335938 0.992188 -0.976562 1.140625 -0.75 C 1.296875 -0.519531 1.523438 -0.40625 1.828125 -0.40625 C 2.035156 -0.40625 2.210938 -0.460938 2.359375 -0.578125 C 2.503906 -0.691406 2.59375 -0.867188 2.625 -1.109375 L 3.234375 -1.078125 C 3.179688 -0.722656 3.03125 -0.441406 2.78125 -0.234375 C 2.539062 -0.0351562 2.226562 0.0625 1.84375 0.0625 C 1.34375 0.0625 0.957031 -0.09375 0.6875 -0.40625 C 0.425781 -0.726562 0.296875 -1.195312 0.296875 -1.8125 C 0.296875 -2.414062 0.425781 -2.875 0.6875 -3.1875 C 0.957031 -3.507812 1.34375 -3.671875 1.84375 -3.671875 C 2.207031 -3.671875 2.507812 -3.570312 2.75 -3.375 C 3 -3.1875 3.15625 -2.925781 3.21875 -2.59375 L 2.59375 -2.546875 C 2.5625 -2.742188 2.484375 -2.898438 2.359375 -3.015625 C 2.234375 -3.140625 2.054688 -3.203125 1.828125 -3.203125 C 1.503906 -3.203125 1.269531 -3.097656 1.125 -2.890625 C 0.988281 -2.679688 0.921875 -2.328125 0.921875 -1.828125 Z M 0.921875 -1.828125 "/></g></g><g style="fill:#00bf63;fill-opacity:1;"><g transform="translate(47.070039, 25.803075)"><path style="stroke:none" d="M 1.84375 -0.03125 C 1.644531 0.0195312 1.441406 0.046875 1.234375 0.046875 C 0.753906 0.046875 0.515625 -0.222656 0.515625 -0.765625 L 0.515625 -3.171875 L 0.109375 -3.171875 L 0.109375 -3.609375 L 0.546875 -3.609375 L 0.71875 -4.421875 L 1.125 -4.421875 L 1.125 -3.609375 L 1.78125 -3.609375 L 1.78125 -3.171875 L 1.125 -3.171875 L 1.125 -0.890625 C 1.125 -0.722656 1.148438 -0.601562 1.203125 -0.53125 C 1.265625 -0.457031 1.363281 -0.421875 1.5 -0.421875 C 1.582031 -0.421875 1.695312 -0.4375 1.84375 -0.46875 Z M 1.84375 -0.03125 "/></g></g><g style="fill:#00bf63;fill-opacity:1;"><g transform="translate(48.693875, 25.803075)"><path style="stroke:none" d="M 0.453125 -4.375 L 0.453125 -4.953125 L 1.0625 -4.953125 L 1.0625 -4.375 Z M 0.453125 0 L 0.453125 -3.609375 L 1.0625 -3.609375 L 1.0625 0 Z M 0.453125 0 "/></g></g><g style="fill:#00bf63;fill-opacity:1;"><g transform="translate(49.937617, 25.803075)"><path style="stroke:none" d="M 3.515625 -1.8125 C 3.515625 -1.175781 3.375 -0.703125 3.09375 -0.390625 C 2.8125 -0.0859375 2.410156 0.0625 1.890625 0.0625 C 1.359375 0.0625 0.957031 -0.09375 0.6875 -0.40625 C 0.414062 -0.726562 0.28125 -1.195312 0.28125 -1.8125 C 0.28125 -3.050781 0.820312 -3.671875 1.90625 -3.671875 C 2.457031 -3.671875 2.863281 -3.519531 3.125 -3.21875 C 3.382812 -2.914062 3.515625 -2.445312 3.515625 -1.8125 Z M 2.875 -1.8125 C 2.875 -2.300781 2.800781 -2.660156 2.65625 -2.890625 C 2.507812 -3.117188 2.257812 -3.234375 1.90625 -3.234375 C 1.5625 -3.234375 1.3125 -3.117188 1.15625 -2.890625 C 1 -2.660156 0.921875 -2.300781 0.921875 -1.8125 C 0.921875 -1.332031 0.992188 -0.972656 1.140625 -0.734375 C 1.296875 -0.492188 1.539062 -0.375 1.875 -0.375 C 2.238281 -0.375 2.492188 -0.488281 2.640625 -0.71875 C 2.796875 -0.945312 2.875 -1.3125 2.875 -1.8125 Z M 2.875 -1.8125 "/></g></g><g style="fill:#00bf63;fill-opacity:1;"><g transform="translate(53.461925, 25.803075)"><path style="stroke:none" d="M 2.75 0 L 2.75 -2.28125 C 2.75 -2.519531 2.722656 -2.703125 2.671875 -2.828125 C 2.628906 -2.960938 2.554688 -3.054688 2.453125 -3.109375 C 2.347656 -3.171875 2.195312 -3.203125 2 -3.203125 C 1.71875 -3.203125 1.492188 -3.101562 1.328125 -2.90625 C 1.160156 -2.71875 1.078125 -2.445312 1.078125 -2.09375 L 1.078125 0 L 0.46875 0 L 0.46875 -2.84375 C 0.46875 -3.257812 0.460938 -3.515625 0.453125 -3.609375 L 1.015625 -3.609375 C 1.023438 -3.597656 1.03125 -3.566406 1.03125 -3.515625 C 1.03125 -3.460938 1.03125 -3.40625 1.03125 -3.34375 C 1.039062 -3.28125 1.046875 -3.160156 1.046875 -2.984375 L 1.0625 -2.984375 C 1.195312 -3.234375 1.351562 -3.410156 1.53125 -3.515625 C 1.71875 -3.617188 1.941406 -3.671875 2.203125 -3.671875 C 2.597656 -3.671875 2.890625 -3.570312 3.078125 -3.375 C 3.265625 -3.175781 3.359375 -2.851562 3.359375 -2.40625 L 3.359375 0 Z M 2.75 0 "/></g></g><g style="fill:#00bf63;fill-opacity:1;"><g transform="translate(56.986232, 25.803075)"><path style="stroke:none" d=""/></g></g><g style="fill:#00bf63;fill-opacity:1;"><g transform="translate(58.610068, 25.803075)"><path style="stroke:none" d="M 0.453125 -4.375 L 0.453125 -4.953125 L 1.0625 -4.953125 L 1.0625 -4.375 Z M 0.453125 0 L 0.453125 -3.609375 L 1.0625 -3.609375 L 1.0625 0 Z M 0.453125 0 "/></g></g><g style="fill:#00bf63;fill-opacity:1;"><g transform="translate(59.85381, 25.803075)"><path style="stroke:none" d="M 3.171875 -1 C 3.171875 -0.65625 3.039062 -0.390625 2.78125 -0.203125 C 2.519531 -0.0234375 2.160156 0.0625 1.703125 0.0625 C 1.253906 0.0625 0.90625 -0.0078125 0.65625 -0.15625 C 0.414062 -0.300781 0.257812 -0.53125 0.1875 -0.84375 L 0.71875 -0.953125 C 0.769531 -0.753906 0.875 -0.609375 1.03125 -0.515625 C 1.195312 -0.429688 1.421875 -0.390625 1.703125 -0.390625 C 2.003906 -0.390625 2.222656 -0.4375 2.359375 -0.53125 C 2.503906 -0.625 2.578125 -0.765625 2.578125 -0.953125 C 2.578125 -1.085938 2.53125 -1.203125 2.4375 -1.296875 C 2.34375 -1.390625 2.1875 -1.460938 1.96875 -1.515625 L 1.53125 -1.625 C 1.1875 -1.71875 0.941406 -1.804688 0.796875 -1.890625 C 0.648438 -1.972656 0.535156 -2.078125 0.453125 -2.203125 C 0.367188 -2.328125 0.328125 -2.476562 0.328125 -2.65625 C 0.328125 -2.976562 0.441406 -3.226562 0.671875 -3.40625 C 0.910156 -3.582031 1.253906 -3.671875 1.703125 -3.671875 C 2.109375 -3.671875 2.425781 -3.597656 2.65625 -3.453125 C 2.894531 -3.316406 3.046875 -3.09375 3.109375 -2.78125 L 2.5625 -2.71875 C 2.53125 -2.875 2.441406 -2.992188 2.296875 -3.078125 C 2.148438 -3.160156 1.953125 -3.203125 1.703125 -3.203125 C 1.429688 -3.203125 1.234375 -3.160156 1.109375 -3.078125 C 0.984375 -3.003906 0.921875 -2.882812 0.921875 -2.71875 C 0.921875 -2.613281 0.945312 -2.523438 1 -2.453125 C 1.050781 -2.390625 1.128906 -2.332031 1.234375 -2.28125 C 1.335938 -2.238281 1.554688 -2.175781 1.890625 -2.09375 C 2.210938 -2.019531 2.441406 -1.945312 2.578125 -1.875 C 2.722656 -1.8125 2.832031 -1.738281 2.90625 -1.65625 C 2.988281 -1.570312 3.050781 -1.472656 3.09375 -1.359375 C 3.144531 -1.253906 3.171875 -1.132812 3.171875 -1 Z M 3.171875 -1 "/></g></g><g style="fill:#00bf63;fill-opacity:1;"><g transform="translate(62.994689, 25.803075)"><path style="stroke:none" d=""/></g></g><g style="fill:#00bf63;fill-opacity:1;"><g transform="translate(64.618525, 25.803075)"><path style="stroke:none" d="M 3.515625 -1.8125 C 3.515625 -1.175781 3.375 -0.703125 3.09375 -0.390625 C 2.8125 -0.0859375 2.410156 0.0625 1.890625 0.0625 C 1.359375 0.0625 0.957031 -0.09375 0.6875 -0.40625 C 0.414062 -0.726562 0.28125 -1.195312 0.28125 -1.8125 C 0.28125 -3.050781 0.820312 -3.671875 1.90625 -3.671875 C 2.457031 -3.671875 2.863281 -3.519531 3.125 -3.21875 C 3.382812 -2.914062 3.515625 -2.445312 3.515625 -1.8125 Z M 2.875 -1.8125 C 2.875 -2.300781 2.800781 -2.660156 2.65625 -2.890625 C 2.507812 -3.117188 2.257812 -3.234375 1.90625 -3.234375 C 1.5625 -3.234375 1.3125 -3.117188 1.15625 -2.890625 C 1 -2.660156 0.921875 -2.300781 0.921875 -1.8125 C 0.921875 -1.332031 0.992188 -0.972656 1.140625 -0.734375 C 1.296875 -0.492188 1.539062 -0.375 1.875 -0.375 C 2.238281 -0.375 2.492188 -0.488281 2.640625 -0.71875 C 2.796875 -0.945312 2.875 -1.3125 2.875 -1.8125 Z M 2.875 -1.8125 "/></g></g><g style="fill:#00bf63;fill-opacity:1;"><g transform="translate(68.142832, 25.803075)"><path style="stroke:none" d="M 1.046875 -3.609375 L 1.046875 -1.3125 C 1.046875 -1.082031 1.066406 -0.898438 1.109375 -0.765625 C 1.160156 -0.628906 1.238281 -0.53125 1.34375 -0.46875 C 1.445312 -0.414062 1.597656 -0.390625 1.796875 -0.390625 C 2.078125 -0.390625 2.300781 -0.488281 2.46875 -0.6875 C 2.632812 -0.882812 2.71875 -1.160156 2.71875 -1.515625 L 2.71875 -3.609375 L 3.328125 -3.609375 L 3.328125 -0.765625 C 3.328125 -0.347656 3.332031 -0.09375 3.34375 0 L 2.78125 0 C 2.78125 -0.0078125 2.773438 -0.0351562 2.765625 -0.078125 C 2.765625 -0.128906 2.757812 -0.1875 2.75 -0.25 C 2.75 -0.320312 2.75 -0.441406 2.75 -0.609375 L 2.734375 -0.609375 C 2.597656 -0.367188 2.4375 -0.195312 2.25 -0.09375 C 2.070312 0.0078125 1.851562 0.0625 1.59375 0.0625 C 1.195312 0.0625 0.90625 -0.0351562 0.71875 -0.234375 C 0.53125 -0.429688 0.4375 -0.753906 0.4375 -1.203125 L 0.4375 -3.609375 Z M 1.046875 -3.609375 "/></g></g><g style="fill:#00bf63;fill-opacity:1;"><g transform="translate(71.66714, 25.803075)"><path style="stroke:none" d="M 0.46875 0 L 0.46875 -2.765625 C 0.46875 -3.015625 0.460938 -3.296875 0.453125 -3.609375 L 1.015625 -3.609375 C 1.035156 -3.203125 1.046875 -2.957031 1.046875 -2.875 L 1.0625 -2.875 C 1.15625 -3.175781 1.265625 -3.382812 1.390625 -3.5 C 1.515625 -3.613281 1.691406 -3.671875 1.921875 -3.671875 C 1.992188 -3.671875 2.070312 -3.660156 2.15625 -3.640625 L 2.15625 -3.09375 C 2.082031 -3.113281 1.976562 -3.125 1.84375 -3.125 C 1.59375 -3.125 1.398438 -3.015625 1.265625 -2.796875 C 1.140625 -2.585938 1.078125 -2.28125 1.078125 -1.875 L 1.078125 0 Z M 0.46875 0 "/></g></g><g style="fill:#00bf63;fill-opacity:1;"><g transform="translate(73.667736, 25.803075)"><path style="stroke:none" d=""/></g></g><g style="fill:#00bf63;fill-opacity:1;"><g transform="translate(75.291572, 25.803075)"><path style="stroke:none" d="M 0.46875 0 L 0.46875 -2.765625 C 0.46875 -3.015625 0.460938 -3.296875 0.453125 -3.609375 L 1.015625 -3.609375 C 1.035156 -3.203125 1.046875 -2.957031 1.046875 -2.875 L 1.0625 -2.875 C 1.15625 -3.175781 1.265625 -3.382812 1.390625 -3.5 C 1.515625 -3.613281 1.691406 -3.671875 1.921875 -3.671875 C 1.992188 -3.671875 2.070312 -3.660156 2.15625 -3.640625 L 2.15625 -3.09375 C 2.082031 -3.113281 1.976562 -3.125 1.84375 -3.125 C 1.59375 -3.125 1.398438 -3.015625 1.265625 -2.796875 C 1.140625 -2.585938 1.078125 -2.28125 1.078125 -1.875 L 1.078125 0 Z M 0.46875 0 "/></g></g><g style="fill:#00bf63;fill-opacity:1;"><g transform="translate(77.292168, 25.803075)"><path style="stroke:none" d="M 0.921875 -1.671875 C 0.921875 -1.265625 1.003906 -0.945312 1.171875 -0.71875 C 1.347656 -0.5 1.597656 -0.390625 1.921875 -0.390625 C 2.179688 -0.390625 2.390625 -0.441406 2.546875 -0.546875 C 2.703125 -0.648438 2.8125 -0.78125 2.875 -0.9375 L 3.390625 -0.78125 C 3.179688 -0.21875 2.691406 0.0625 1.921875 0.0625 C 1.390625 0.0625 0.984375 -0.09375 0.703125 -0.40625 C 0.429688 -0.726562 0.296875 -1.203125 0.296875 -1.828125 C 0.296875 -2.421875 0.429688 -2.875 0.703125 -3.1875 C 0.984375 -3.507812 1.382812 -3.671875 1.90625 -3.671875 C 2.96875 -3.671875 3.5 -3.03125 3.5 -1.75 L 3.5 -1.671875 Z M 2.875 -2.140625 C 2.84375 -2.515625 2.742188 -2.789062 2.578125 -2.96875 C 2.421875 -3.144531 2.191406 -3.234375 1.890625 -3.234375 C 1.597656 -3.234375 1.367188 -3.132812 1.203125 -2.9375 C 1.035156 -2.738281 0.941406 -2.472656 0.921875 -2.140625 Z M 2.875 -2.140625 "/></g></g><g style="fill:#00bf63;fill-opacity:1;"><g transform="translate(80.816476, 25.803075)"><path style="stroke:none" d="M 0.921875 -1.828125 C 0.921875 -1.335938 0.992188 -0.976562 1.140625 -0.75 C 1.296875 -0.519531 1.523438 -0.40625 1.828125 -0.40625 C 2.035156 -0.40625 2.210938 -0.460938 2.359375 -0.578125 C 2.503906 -0.691406 2.59375 -0.867188 2.625 -1.109375 L 3.234375 -1.078125 C 3.179688 -0.722656 3.03125 -0.441406 2.78125 -0.234375 C 2.539062 -0.0351562 2.226562 0.0625 1.84375 0.0625 C 1.34375 0.0625 0.957031 -0.09375 0.6875 -0.40625 C 0.425781 -0.726562 0.296875 -1.195312 0.296875 -1.8125 C 0.296875 -2.414062 0.425781 -2.875 0.6875 -3.1875 C 0.957031 -3.507812 1.34375 -3.671875 1.84375 -3.671875 C 2.207031 -3.671875 2.507812 -3.570312 2.75 -3.375 C 3 -3.1875 3.15625 -2.925781 3.21875 -2.59375 L 2.59375 -2.546875 C 2.5625 -2.742188 2.484375 -2.898438 2.359375 -3.015625 C 2.234375 -3.140625 2.054688 -3.203125 1.828125 -3.203125 C 1.503906 -3.203125 1.269531 -3.097656 1.125 -2.890625 C 0.988281 -2.679688 0.921875 -2.328125 0.921875 -1.828125 Z M 0.921875 -1.828125 "/></g></g><g style="fill:#00bf63;fill-opacity:1;"><g transform="translate(83.957355, 25.803075)"><path style="stroke:none" d="M 0.453125 -4.375 L 0.453125 -4.953125 L 1.0625 -4.953125 L 1.0625 -4.375 Z M 0.453125 0 L 0.453125 -3.609375 L 1.0625 -3.609375 L 1.0625 0 Z M 0.453125 0 "/></g></g><g style="fill:#00bf63;fill-opacity:1;"><g transform="translate(85.201096, 25.803075)"><path style="stroke:none" d="M 3.515625 -1.828125 C 3.515625 -0.566406 3.070312 0.0625 2.1875 0.0625 C 1.625 0.0625 1.25 -0.144531 1.0625 -0.5625 L 1.046875 -0.5625 C 1.054688 -0.539062 1.0625 -0.351562 1.0625 0 L 1.0625 1.421875 L 0.453125 1.421875 L 0.453125 -2.875 C 0.453125 -3.238281 0.445312 -3.484375 0.4375 -3.609375 L 1.015625 -3.609375 C 1.023438 -3.597656 1.03125 -3.566406 1.03125 -3.515625 C 1.03125 -3.460938 1.03125 -3.378906 1.03125 -3.265625 C 1.039062 -3.148438 1.046875 -3.070312 1.046875 -3.03125 L 1.0625 -3.03125 C 1.175781 -3.25 1.316406 -3.410156 1.484375 -3.515625 C 1.660156 -3.617188 1.894531 -3.671875 2.1875 -3.671875 C 2.625 -3.671875 2.953125 -3.519531 3.171875 -3.21875 C 3.398438 -2.925781 3.515625 -2.460938 3.515625 -1.828125 Z M 2.875 -1.8125 C 2.875 -2.3125 2.804688 -2.664062 2.671875 -2.875 C 2.535156 -3.09375 2.320312 -3.203125 2.03125 -3.203125 C 1.789062 -3.203125 1.601562 -3.148438 1.46875 -3.046875 C 1.332031 -2.953125 1.226562 -2.796875 1.15625 -2.578125 C 1.09375 -2.367188 1.0625 -2.097656 1.0625 -1.765625 C 1.0625 -1.285156 1.132812 -0.929688 1.28125 -0.703125 C 1.4375 -0.484375 1.6875 -0.375 2.03125 -0.375 C 2.320312 -0.375 2.535156 -0.484375 2.671875 -0.703125 C 2.804688 -0.921875 2.875 -1.289062 2.875 -1.8125 Z M 2.875 -1.8125 "/></g></g><g style="fill:#00bf63;fill-opacity:1;"><g transform="translate(88.725404, 25.803075)"><path style="stroke:none" d="M 0.921875 -1.671875 C 0.921875 -1.265625 1.003906 -0.945312 1.171875 -0.71875 C 1.347656 -0.5 1.597656 -0.390625 1.921875 -0.390625 C 2.179688 -0.390625 2.390625 -0.441406 2.546875 -0.546875 C 2.703125 -0.648438 2.8125 -0.78125 2.875 -0.9375 L 3.390625 -0.78125 C 3.179688 -0.21875 2.691406 0.0625 1.921875 0.0625 C 1.390625 0.0625 0.984375 -0.09375 0.703125 -0.40625 C 0.429688 -0.726562 0.296875 -1.203125 0.296875 -1.828125 C 0.296875 -2.421875 0.429688 -2.875 0.703125 -3.1875 C 0.984375 -3.507812 1.382812 -3.671875 1.90625 -3.671875 C 2.96875 -3.671875 3.5 -3.03125 3.5 -1.75 L 3.5 -1.671875 Z M 2.875 -2.140625 C 2.84375 -2.515625 2.742188 -2.789062 2.578125 -2.96875 C 2.421875 -3.144531 2.191406 -3.234375 1.890625 -3.234375 C 1.597656 -3.234375 1.367188 -3.132812 1.203125 -2.9375 C 1.035156 -2.738281 0.941406 -2.472656 0.921875 -2.140625 Z M 2.875 -2.140625 "/></g></g><g style="fill:#00bf63;fill-opacity:1;"><g transform="translate(92.249712, 25.803075)"><path style="stroke:none" d="M 1.203125 -1.328125 L 0.703125 -1.328125 L 0.625 -4.703125 L 1.28125 -4.703125 Z M 0.609375 0 L 0.609375 -0.671875 L 1.265625 -0.671875 L 1.265625 0 Z M 0.609375 0 "/></g></g></g></svg>