<svg xmlns="http://www.w3.org/2000/svg" xmlns:xlink="http://www.w3.org/1999/xlink" width="96" zoomAndPan="magnify" viewBox="0 0 72 72" height="96" preserveAspectRatio="xMidYMid meet" version="1.2"><defs/><g id="c27c35f93b"><g style="fill:#f9aa0c;fill-opacity:0.302;"><g transform="translate(18.692396, 50.067669)"><path style="stroke:none" d="M 2.328125 0 L 2.328125 -0.6875 C 3.148438 -0.957031 3.679688 -1.507812 3.921875 -2.34375 C 4.171875 -3.1875 4.296875 -4.5 4.296875 -6.28125 L 4.296875 -28.3125 C 4.296875 -30.09375 4.171875 -31.40625 3.921875 -32.25 C 3.679688 -33.09375 3.148438 -33.644531 2.328125 -33.90625 L 2.328125 -34.59375 L 14.671875 -34.59375 C 18.234375 -34.59375 21.222656 -34.082031 23.640625 -33.0625 C 26.066406 -32.039062 28.003906 -30.695312 29.453125 -29.03125 C 30.898438 -27.375 31.953125 -25.570312 32.609375 -23.625 C 33.273438 -21.675781 33.609375 -19.796875 33.609375 -17.984375 C 33.640625 -14.429688 32.921875 -11.300781 31.453125 -8.59375 C 29.984375 -5.894531 27.90625 -3.785156 25.21875 -2.265625 C 22.539062 -0.753906 19.390625 0 15.765625 0 Z M 9.53125 -4.40625 C 9.53125 -3.25 9.726562 -2.359375 10.125 -1.734375 C 10.519531 -1.109375 11.394531 -0.796875 12.75 -0.796875 L 15.421875 -0.796875 C 19.410156 -0.796875 22.46875 -1.9375 24.59375 -4.21875 C 26.71875 -6.507812 27.78125 -10.289062 27.78125 -15.5625 C 27.78125 -18.957031 27.1875 -22.03125 26 -24.78125 C 24.8125 -27.53125 23.019531 -29.71875 20.625 -31.34375 C 18.238281 -32.976562 15.203125 -33.796875 11.515625 -33.796875 L 9.53125 -33.796875 Z M 9.53125 -4.40625 "/></g></g><g style="fill:#f9aa0c;fill-opacity:0.502;"><g transform="translate(16.508102, 47.883375)"><path style="stroke:none" d="M 2.328125 0 L 2.328125 -0.6875 C 3.148438 -0.957031 3.679688 -1.507812 3.921875 -2.34375 C 4.171875 -3.1875 4.296875 -4.5 4.296875 -6.28125 L 4.296875 -28.3125 C 4.296875 -30.09375 4.171875 -31.40625 3.921875 -32.25 C 3.679688 -33.09375 3.148438 -33.644531 2.328125 -33.90625 L 2.328125 -34.59375 L 14.671875 -34.59375 C 18.234375 -34.59375 21.222656 -34.082031 23.640625 -33.0625 C 26.066406 -32.039062 28.003906 -30.695312 29.453125 -29.03125 C 30.898438 -27.375 31.953125 -25.570312 32.609375 -23.625 C 33.273438 -21.675781 33.609375 -19.796875 33.609375 -17.984375 C 33.640625 -14.429688 32.921875 -11.300781 31.453125 -8.59375 C 29.984375 -5.894531 27.90625 -3.785156 25.21875 -2.265625 C 22.539062 -0.753906 19.390625 0 15.765625 0 Z M 9.53125 -4.40625 C 9.53125 -3.25 9.726562 -2.359375 10.125 -1.734375 C 10.519531 -1.109375 11.394531 -0.796875 12.75 -0.796875 L 15.421875 -0.796875 C 19.410156 -0.796875 22.46875 -1.9375 24.59375 -4.21875 C 26.71875 -6.507812 27.78125 -10.289062 27.78125 -15.5625 C 27.78125 -18.957031 27.1875 -22.03125 26 -24.78125 C 24.8125 -27.53125 23.019531 -29.71875 20.625 -31.34375 C 18.238281 -32.976562 15.203125 -33.796875 11.515625 -33.796875 L 9.53125 -33.796875 Z M 9.53125 -4.40625 "/></g></g><g style="fill:#f9aa0c;fill-opacity:1;"><g transform="translate(14.323808, 45.699081)"><path style="stroke:none" d="M 2.328125 0 L 2.328125 -0.6875 C 3.148438 -0.957031 3.679688 -1.507812 3.921875 -2.34375 C 4.171875 -3.1875 4.296875 -4.5 4.296875 -6.28125 L 4.296875 -28.3125 C 4.296875 -30.09375 4.171875 -31.40625 3.921875 -32.25 C 3.679688 -33.09375 3.148438 -33.644531 2.328125 -33.90625 L 2.328125 -34.59375 L 14.671875 -34.59375 C 18.234375 -34.59375 21.222656 -34.082031 23.640625 -33.0625 C 26.066406 -32.039062 28.003906 -30.695312 29.453125 -29.03125 C 30.898438 -27.375 31.953125 -25.570312 32.609375 -23.625 C 33.273438 -21.675781 33.609375 -19.796875 33.609375 -17.984375 C 33.640625 -14.429688 32.921875 -11.300781 31.453125 -8.59375 C 29.984375 -5.894531 27.90625 -3.785156 25.21875 -2.265625 C 22.539062 -0.753906 19.390625 0 15.765625 0 Z M 9.53125 -4.40625 C 9.53125 -3.25 9.726562 -2.359375 10.125 -1.734375 C 10.519531 -1.109375 11.394531 -0.796875 12.75 -0.796875 L 15.421875 -0.796875 C 19.410156 -0.796875 22.46875 -1.9375 24.59375 -4.21875 C 26.71875 -6.507812 27.78125 -10.289062 27.78125 -15.5625 C 27.78125 -18.957031 27.1875 -22.03125 26 -24.78125 C 24.8125 -27.53125 23.019531 -29.71875 20.625 -31.34375 C 18.238281 -32.976562 15.203125 -33.796875 11.515625 -33.796875 L 9.53125 -33.796875 Z M 9.53125 -4.40625 "/></g></g><g style="fill:#00bf63;fill-opacity:0.302;"><g transform="translate(31.629685, 62.449783)"><path style="stroke:none" d="M 2.328125 0 L 2.328125 -0.6875 C 3.148438 -0.957031 3.679688 -1.507812 3.921875 -2.34375 C 4.171875 -3.1875 4.296875 -4.5 4.296875 -6.28125 L 4.296875 -28.3125 C 4.296875 -30.09375 4.171875 -31.40625 3.921875 -32.25 C 3.679688 -33.09375 3.148438 -33.644531 2.328125 -33.90625 L 2.328125 -34.59375 L 14.53125 -34.59375 C 18.582031 -34.59375 21.4375 -34.007812 23.09375 -32.84375 C 24.757812 -31.675781 25.59375 -30.085938 25.59375 -28.078125 C 25.59375 -26.390625 24.984375 -24.851562 23.765625 -23.46875 C 22.546875 -22.09375 20.375 -21.125 17.25 -20.5625 C 21.332031 -20.425781 24.398438 -19.519531 26.453125 -17.84375 C 28.515625 -16.164062 29.566406 -14.085938 29.609375 -11.609375 C 29.640625 -10.160156 29.359375 -8.742188 28.765625 -7.359375 C 28.171875 -5.972656 27.222656 -4.726562 25.921875 -3.625 C 24.617188 -2.53125 22.90625 -1.648438 20.78125 -0.984375 C 18.65625 -0.328125 16.078125 0 13.046875 0 Z M 9.53125 -5.09375 C 9.53125 -3.3125 9.695312 -2.148438 10.03125 -1.609375 C 10.363281 -1.066406 11.054688 -0.796875 12.109375 -0.796875 L 13.484375 -0.796875 C 17.046875 -0.796875 19.640625 -1.640625 21.265625 -3.328125 C 22.898438 -5.023438 23.71875 -7.175781 23.71875 -9.78125 C 23.71875 -12.75 22.859375 -15.179688 21.140625 -17.078125 C 19.429688 -18.972656 16.734375 -19.921875 13.046875 -19.921875 L 9.53125 -19.921875 Z M 9.53125 -20.703125 L 13.9375 -20.703125 C 15.75 -20.703125 17.164062 -21.3125 18.1875 -22.53125 C 19.207031 -23.75 19.71875 -25.21875 19.71875 -26.9375 C 19.71875 -29.113281 18.992188 -30.800781 17.546875 -32 C 16.097656 -33.195312 14.101562 -33.796875 11.5625 -33.796875 L 9.53125 -33.796875 Z M 9.53125 -20.703125 "/></g></g><g style="fill:#00bf63;fill-opacity:0.502;"><g transform="translate(29.445392, 60.265489)"><path style="stroke:none" d="M 2.328125 0 L 2.328125 -0.6875 C 3.148438 -0.957031 3.679688 -1.507812 3.921875 -2.34375 C 4.171875 -3.1875 4.296875 -4.5 4.296875 -6.28125 L 4.296875 -28.3125 C 4.296875 -30.09375 4.171875 -31.40625 3.921875 -32.25 C 3.679688 -33.09375 3.148438 -33.644531 2.328125 -33.90625 L 2.328125 -34.59375 L 14.53125 -34.59375 C 18.582031 -34.59375 21.4375 -34.007812 23.09375 -32.84375 C 24.757812 -31.675781 25.59375 -30.085938 25.59375 -28.078125 C 25.59375 -26.390625 24.984375 -24.851562 23.765625 -23.46875 C 22.546875 -22.09375 20.375 -21.125 17.25 -20.5625 C 21.332031 -20.425781 24.398438 -19.519531 26.453125 -17.84375 C 28.515625 -16.164062 29.566406 -14.085938 29.609375 -11.609375 C 29.640625 -10.160156 29.359375 -8.742188 28.765625 -7.359375 C 28.171875 -5.972656 27.222656 -4.726562 25.921875 -3.625 C 24.617188 -2.53125 22.90625 -1.648438 20.78125 -0.984375 C 18.65625 -0.328125 16.078125 0 13.046875 0 Z M 9.53125 -5.09375 C 9.53125 -3.3125 9.695312 -2.148438 10.03125 -1.609375 C 10.363281 -1.066406 11.054688 -0.796875 12.109375 -0.796875 L 13.484375 -0.796875 C 17.046875 -0.796875 19.640625 -1.640625 21.265625 -3.328125 C 22.898438 -5.023438 23.71875 -7.175781 23.71875 -9.78125 C 23.71875 -12.75 22.859375 -15.179688 21.140625 -17.078125 C 19.429688 -18.972656 16.734375 -19.921875 13.046875 -19.921875 L 9.53125 -19.921875 Z M 9.53125 -20.703125 L 13.9375 -20.703125 C 15.75 -20.703125 17.164062 -21.3125 18.1875 -22.53125 C 19.207031 -23.75 19.71875 -25.21875 19.71875 -26.9375 C 19.71875 -29.113281 18.992188 -30.800781 17.546875 -32 C 16.097656 -33.195312 14.101562 -33.796875 11.5625 -33.796875 L 9.53125 -33.796875 Z M 9.53125 -20.703125 "/></g></g><g style="fill:#00bf63;fill-opacity:1;"><g transform="translate(27.261097, 58.081195)"><path style="stroke:none" d="M 2.328125 0 L 2.328125 -0.6875 C 3.148438 -0.957031 3.679688 -1.507812 3.921875 -2.34375 C 4.171875 -3.1875 4.296875 -4.5 4.296875 -6.28125 L 4.296875 -28.3125 C 4.296875 -30.09375 4.171875 -31.40625 3.921875 -32.25 C 3.679688 -33.09375 3.148438 -33.644531 2.328125 -33.90625 L 2.328125 -34.59375 L 14.53125 -34.59375 C 18.582031 -34.59375 21.4375 -34.007812 23.09375 -32.84375 C 24.757812 -31.675781 25.59375 -30.085938 25.59375 -28.078125 C 25.59375 -26.390625 24.984375 -24.851562 23.765625 -23.46875 C 22.546875 -22.09375 20.375 -21.125 17.25 -20.5625 C 21.332031 -20.425781 24.398438 -19.519531 26.453125 -17.84375 C 28.515625 -16.164062 29.566406 -14.085938 29.609375 -11.609375 C 29.640625 -10.160156 29.359375 -8.742188 28.765625 -7.359375 C 28.171875 -5.972656 27.222656 -4.726562 25.921875 -3.625 C 24.617188 -2.53125 22.90625 -1.648438 20.78125 -0.984375 C 18.65625 -0.328125 16.078125 0 13.046875 0 Z M 9.53125 -5.09375 C 9.53125 -3.3125 9.695312 -2.148438 10.03125 -1.609375 C 10.363281 -1.066406 11.054688 -0.796875 12.109375 -0.796875 L 13.484375 -0.796875 C 17.046875 -0.796875 19.640625 -1.640625 21.265625 -3.328125 C 22.898438 -5.023438 23.71875 -7.175781 23.71875 -9.78125 C 23.71875 -12.75 22.859375 -15.179688 21.140625 -17.078125 C 19.429688 -18.972656 16.734375 -19.921875 13.046875 -19.921875 L 9.53125 -19.921875 Z M 9.53125 -20.703125 L 13.9375 -20.703125 C 15.75 -20.703125 17.164062 -21.3125 18.1875 -22.53125 C 19.207031 -23.75 19.71875 -25.21875 19.71875 -26.9375 C 19.71875 -29.113281 18.992188 -30.800781 17.546875 -32 C 16.097656 -33.195312 14.101562 -33.796875 11.5625 -33.796875 L 9.53125 -33.796875 Z M 9.53125 -20.703125 "/></g></g></g></svg>