<svg xmlns="http://www.w3.org/2000/svg" xmlns:xlink="http://www.w3.org/1999/xlink" width="96" zoomAndPan="magnify" viewBox="0 0 72 30.000001" height="40" preserveAspectRatio="xMidYMid meet" version="1.2"><defs><clipPath id="893a1f7c08"><path d="M 1.160156 5 L 10 5 L 10 18 L 1.160156 18 Z M 1.160156 5 "/></clipPath><clipPath id="43a4f62832"><path d="M 62 10 L 70.835938 10 L 70.835938 18 L 62 18 Z M 62 10 "/></clipPath></defs><g id="44ec0c4b16"><g clip-rule="nonzero" clip-path="url(#893a1f7c08)"><g style="fill:#f9aa0c;fill-opacity:1;"><g transform="translate(0.685532, 17.823923)"><path style="stroke:none" d="M 6.421875 -3.484375 C 6.421875 -3.796875 6.347656 -4.082031 6.203125 -4.34375 C 6.054688 -4.601562 5.859375 -4.816406 5.609375 -4.984375 C 5.359375 -5.148438 5.070312 -5.234375 4.75 -5.234375 C 4.4375 -5.234375 4.15625 -5.148438 3.90625 -4.984375 C 3.65625 -4.816406 3.457031 -4.601562 3.3125 -4.34375 C 3.164062 -4.082031 3.09375 -3.796875 3.09375 -3.484375 C 3.09375 -3.179688 3.164062 -2.894531 3.3125 -2.625 C 3.457031 -2.363281 3.65625 -2.148438 3.90625 -1.984375 C 4.15625 -1.828125 4.4375 -1.75 4.75 -1.75 C 5.070312 -1.75 5.359375 -1.828125 5.609375 -1.984375 C 5.859375 -2.148438 6.054688 -2.363281 6.203125 -2.625 C 6.347656 -2.894531 6.421875 -3.179688 6.421875 -3.484375 Z M 8.796875 -11.890625 L 8.796875 0 L 6.421875 0 L 6.421875 -0.84375 C 6.191406 -0.476562 5.84375 -0.21875 5.375 -0.0625 C 4.914062 0.0820312 4.46875 0.15625 4.03125 0.15625 C 3.375 0.15625 2.78125 -0.0078125 2.25 -0.34375 C 1.71875 -0.6875 1.300781 -1.132812 1 -1.6875 C 0.707031 -2.238281 0.5625 -2.835938 0.5625 -3.484375 C 0.5625 -4.128906 0.707031 -4.726562 1 -5.28125 C 1.300781 -5.84375 1.71875 -6.296875 2.25 -6.640625 C 2.78125 -6.984375 3.375 -7.15625 4.03125 -7.15625 C 4.46875 -7.15625 4.898438 -7.078125 5.328125 -6.921875 C 5.753906 -6.773438 6.117188 -6.515625 6.421875 -6.140625 L 6.421875 -11.890625 Z M 8.796875 -11.890625 "/></g></g></g><g style="fill:#f9aa0c;fill-opacity:1;"><g transform="translate(9.486131, 17.823923)"><path style="stroke:none" d="M 8.109375 -3.96875 L 8.109375 0 L 5.71875 0 L 5.71875 -3.96875 C 5.71875 -4.375 5.632812 -4.6875 5.46875 -4.90625 C 5.300781 -5.125 5.03125 -5.234375 4.65625 -5.234375 C 4.289062 -5.234375 3.976562 -5.0625 3.71875 -4.71875 C 3.457031 -4.375 3.328125 -3.960938 3.328125 -3.484375 L 3.328125 0 L 0.953125 0 L 0.953125 -11.890625 L 3.328125 -11.890625 L 3.328125 -6.140625 C 3.566406 -6.441406 3.867188 -6.6875 4.234375 -6.875 C 4.609375 -7.0625 5.019531 -7.15625 5.46875 -7.15625 C 6.414062 -7.15625 7.09375 -6.859375 7.5 -6.265625 C 7.90625 -5.679688 8.109375 -4.914062 8.109375 -3.96875 Z M 8.109375 -3.96875 "/></g></g><g style="fill:#f9aa0c;fill-opacity:1;"><g transform="translate(17.351164, 17.823923)"><path style="stroke:none" d="M 6.421875 -3.484375 C 6.421875 -3.796875 6.347656 -4.082031 6.203125 -4.34375 C 6.054688 -4.601562 5.859375 -4.816406 5.609375 -4.984375 C 5.359375 -5.148438 5.070312 -5.234375 4.75 -5.234375 C 4.4375 -5.234375 4.15625 -5.148438 3.90625 -4.984375 C 3.65625 -4.816406 3.457031 -4.601562 3.3125 -4.34375 C 3.164062 -4.082031 3.09375 -3.796875 3.09375 -3.484375 C 3.09375 -3.179688 3.164062 -2.894531 3.3125 -2.625 C 3.457031 -2.363281 3.65625 -2.148438 3.90625 -1.984375 C 4.15625 -1.828125 4.4375 -1.75 4.75 -1.75 C 5.070312 -1.75 5.359375 -1.828125 5.609375 -1.984375 C 5.859375 -2.148438 6.054688 -2.363281 6.203125 -2.625 C 6.347656 -2.894531 6.421875 -3.179688 6.421875 -3.484375 Z M 8.796875 -6.984375 L 8.796875 0 L 6.421875 0 L 6.421875 -0.84375 C 6.191406 -0.476562 5.84375 -0.21875 5.375 -0.0625 C 4.914062 0.0820312 4.46875 0.15625 4.03125 0.15625 C 3.375 0.15625 2.78125 -0.0078125 2.25 -0.34375 C 1.71875 -0.6875 1.300781 -1.132812 1 -1.6875 C 0.707031 -2.238281 0.5625 -2.835938 0.5625 -3.484375 C 0.5625 -4.128906 0.707031 -4.726562 1 -5.28125 C 1.300781 -5.84375 1.71875 -6.296875 2.25 -6.640625 C 2.78125 -6.984375 3.375 -7.15625 4.03125 -7.15625 C 4.46875 -7.15625 4.898438 -7.078125 5.328125 -6.921875 C 5.753906 -6.773438 6.117188 -6.515625 6.421875 -6.140625 L 6.421875 -6.984375 Z M 8.796875 -6.984375 "/></g></g><g style="fill:#f9aa0c;fill-opacity:1;"><g transform="translate(26.151763, 17.823923)"><path style="stroke:none" d="M 3.328125 -3.09375 L 3.328125 0 L 0.953125 0 L 0.953125 -11.890625 L 3.328125 -11.890625 L 3.328125 -4.21875 L 5.5625 -7 L 8.515625 -7 L 5.5 -3.65625 L 8.828125 0 L 5.78125 0 Z M 3.328125 -3.09375 "/></g></g><g style="fill:#f9aa0c;fill-opacity:1;"><g transform="translate(33.556939, 17.823923)"><path style="stroke:none" d="M 6.421875 -3.484375 C 6.421875 -3.796875 6.347656 -4.082031 6.203125 -4.34375 C 6.054688 -4.601562 5.859375 -4.816406 5.609375 -4.984375 C 5.359375 -5.148438 5.070312 -5.234375 4.75 -5.234375 C 4.4375 -5.234375 4.15625 -5.148438 3.90625 -4.984375 C 3.65625 -4.816406 3.457031 -4.601562 3.3125 -4.34375 C 3.164062 -4.082031 3.09375 -3.796875 3.09375 -3.484375 C 3.09375 -3.179688 3.164062 -2.894531 3.3125 -2.625 C 3.457031 -2.363281 3.65625 -2.148438 3.90625 -1.984375 C 4.15625 -1.828125 4.4375 -1.75 4.75 -1.75 C 5.070312 -1.75 5.359375 -1.828125 5.609375 -1.984375 C 5.859375 -2.148438 6.054688 -2.363281 6.203125 -2.625 C 6.347656 -2.894531 6.421875 -3.179688 6.421875 -3.484375 Z M 8.796875 -6.984375 L 8.796875 0 L 6.421875 0 L 6.421875 -0.84375 C 6.191406 -0.476562 5.84375 -0.21875 5.375 -0.0625 C 4.914062 0.0820312 4.46875 0.15625 4.03125 0.15625 C 3.375 0.15625 2.78125 -0.0078125 2.25 -0.34375 C 1.71875 -0.6875 1.300781 -1.132812 1 -1.6875 C 0.707031 -2.238281 0.5625 -2.835938 0.5625 -3.484375 C 0.5625 -4.128906 0.707031 -4.726562 1 -5.28125 C 1.300781 -5.84375 1.71875 -6.296875 2.25 -6.640625 C 2.78125 -6.984375 3.375 -7.15625 4.03125 -7.15625 C 4.46875 -7.15625 4.898438 -7.078125 5.328125 -6.921875 C 5.753906 -6.773438 6.117188 -6.515625 6.421875 -6.140625 L 6.421875 -6.984375 Z M 8.796875 -6.984375 "/></g></g><g style="fill:#f9aa0c;fill-opacity:1;"><g transform="translate(42.357538, 17.823923)"><path style="stroke:none" d=""/></g></g><g style="fill:#f9aa0c;fill-opacity:1;"><g transform="translate(45.370298, 17.823923)"><path style="stroke:none" d="M 3.328125 -3.484375 C 3.328125 -3.179688 3.398438 -2.894531 3.546875 -2.625 C 3.703125 -2.363281 3.898438 -2.148438 4.140625 -1.984375 C 4.390625 -1.828125 4.675781 -1.75 5 -1.75 C 5.3125 -1.75 5.59375 -1.828125 5.84375 -1.984375 C 6.09375 -2.148438 6.289062 -2.363281 6.4375 -2.625 C 6.582031 -2.894531 6.65625 -3.179688 6.65625 -3.484375 C 6.65625 -3.796875 6.582031 -4.082031 6.4375 -4.34375 C 6.289062 -4.601562 6.09375 -4.816406 5.84375 -4.984375 C 5.59375 -5.148438 5.3125 -5.234375 5 -5.234375 C 4.675781 -5.234375 4.390625 -5.148438 4.140625 -4.984375 C 3.898438 -4.816406 3.703125 -4.601562 3.546875 -4.34375 C 3.398438 -4.082031 3.328125 -3.796875 3.328125 -3.484375 Z M 3.328125 0 L 0.953125 0 L 0.953125 -11.890625 L 3.328125 -11.890625 L 3.328125 -6.140625 C 3.640625 -6.515625 4.003906 -6.773438 4.421875 -6.921875 C 4.835938 -7.078125 5.269531 -7.15625 5.71875 -7.15625 C 6.382812 -7.15625 6.976562 -6.984375 7.5 -6.640625 C 8.03125 -6.296875 8.445312 -5.84375 8.75 -5.28125 C 9.050781 -4.726562 9.203125 -4.128906 9.203125 -3.484375 C 9.203125 -2.835938 9.050781 -2.238281 8.75 -1.6875 C 8.445312 -1.132812 8.03125 -0.6875 7.5 -0.34375 C 6.976562 -0.0078125 6.382812 0.15625 5.71875 0.15625 C 5.269531 0.15625 4.816406 0.0820312 4.359375 -0.0625 C 3.910156 -0.21875 3.566406 -0.476562 3.328125 -0.84375 Z M 3.328125 0 "/></g></g><g style="fill:#f9aa0c;fill-opacity:1;"><g transform="translate(54.1709, 17.823923)"><path style="stroke:none" d="M 0.828125 -9.390625 C 0.828125 -9.773438 0.960938 -10.101562 1.234375 -10.375 C 1.503906 -10.644531 1.832031 -10.78125 2.21875 -10.78125 C 2.601562 -10.78125 2.929688 -10.644531 3.203125 -10.375 C 3.472656 -10.101562 3.609375 -9.773438 3.609375 -9.390625 C 3.609375 -9.003906 3.472656 -8.675781 3.203125 -8.40625 C 2.929688 -8.132812 2.601562 -8 2.21875 -8 C 1.832031 -8 1.503906 -8.132812 1.234375 -8.40625 C 0.960938 -8.675781 0.828125 -9.003906 0.828125 -9.390625 Z M 3.40625 0 L 1.03125 0 L 1.03125 -7 L 3.40625 -7 Z M 3.40625 0 "/></g></g><g style="fill:#f9aa0c;fill-opacity:1;"><g transform="translate(57.659366, 17.823923)"><path style="stroke:none" d="M 3.953125 -5.15625 L 3.953125 0 L 1.578125 0 L 1.578125 -5.15625 L 0.3125 -5.15625 L 0.3125 -7 L 1.578125 -7 L 1.578125 -9.65625 L 3.953125 -9.65625 L 3.953125 -7 L 5.21875 -7 L 5.21875 -5.15625 Z M 3.953125 -5.15625 "/></g></g><g clip-rule="nonzero" clip-path="url(#43a4f62832)"><g style="fill:#f9aa0c;fill-opacity:1;"><g transform="translate(62.241981, 17.823923)"><path style="stroke:none" d="M 3.109375 -4.328125 L 6.234375 -4.328125 C 6.234375 -4.328125 6.21875 -4.390625 6.1875 -4.515625 C 6.164062 -4.648438 6.101562 -4.800781 6 -4.96875 C 5.90625 -5.144531 5.75 -5.296875 5.53125 -5.421875 C 5.320312 -5.554688 5.035156 -5.625 4.671875 -5.625 C 4.304688 -5.625 4.015625 -5.554688 3.796875 -5.421875 C 3.585938 -5.296875 3.429688 -5.144531 3.328125 -4.96875 C 3.234375 -4.800781 3.171875 -4.648438 3.140625 -4.515625 C 3.117188 -4.390625 3.109375 -4.328125 3.109375 -4.328125 Z M 8.515625 -3.640625 C 8.515625 -3.566406 8.507812 -3.492188 8.5 -3.421875 C 8.5 -3.347656 8.5 -3.273438 8.5 -3.203125 L 3.078125 -3.203125 C 3.078125 -2.941406 3.132812 -2.679688 3.25 -2.421875 C 3.375 -2.160156 3.550781 -1.945312 3.78125 -1.78125 C 4.007812 -1.613281 4.273438 -1.53125 4.578125 -1.53125 C 5.003906 -1.53125 5.335938 -1.644531 5.578125 -1.875 C 5.828125 -2.101562 5.957031 -2.34375 5.96875 -2.59375 L 8.390625 -2.59375 C 8.191406 -1.675781 7.75 -0.988281 7.0625 -0.53125 C 6.375 -0.0703125 5.5625 0.15625 4.625 0.15625 C 3.820312 0.15625 3.113281 0.00390625 2.5 -0.296875 C 1.882812 -0.597656 1.40625 -1.019531 1.0625 -1.5625 C 0.726562 -2.101562 0.5625 -2.742188 0.5625 -3.484375 C 0.5625 -4.210938 0.738281 -4.851562 1.09375 -5.40625 C 1.445312 -5.957031 1.925781 -6.382812 2.53125 -6.6875 C 3.144531 -7 3.84375 -7.15625 4.625 -7.15625 C 5.332031 -7.15625 5.976562 -7.015625 6.5625 -6.734375 C 7.15625 -6.460938 7.628906 -6.066406 7.984375 -5.546875 C 8.335938 -5.035156 8.515625 -4.398438 8.515625 -3.640625 Z M 8.515625 -3.640625 "/></g></g></g><g style="fill:#00bf63;fill-opacity:1;"><g transform="translate(6.204824, 22.767245)"><path style="stroke:none" d="M 1.859375 -1.40625 L 1.859375 0 L 1.40625 0 L 1.40625 -1.40625 L 0.109375 -3.375 L 0.609375 -3.375 L 1.640625 -1.765625 L 2.65625 -3.375 L 3.171875 -3.375 Z M 1.859375 -1.40625 "/></g></g><g style="fill:#00bf63;fill-opacity:1;"><g transform="translate(9.278463, 22.767245)"><path style="stroke:none" d="M 2.515625 -1.296875 C 2.515625 -0.847656 2.414062 -0.507812 2.21875 -0.28125 C 2.019531 -0.0625 1.734375 0.046875 1.359375 0.046875 C 0.972656 0.046875 0.679688 -0.0664062 0.484375 -0.296875 C 0.296875 -0.523438 0.203125 -0.859375 0.203125 -1.296875 C 0.203125 -2.191406 0.59375 -2.640625 1.375 -2.640625 C 1.769531 -2.640625 2.054688 -2.53125 2.234375 -2.3125 C 2.421875 -2.09375 2.515625 -1.753906 2.515625 -1.296875 Z M 2.0625 -1.296875 C 2.0625 -1.648438 2.007812 -1.910156 1.90625 -2.078125 C 1.800781 -2.242188 1.625 -2.328125 1.375 -2.328125 C 1.125 -2.328125 0.941406 -2.242188 0.828125 -2.078125 C 0.710938 -1.910156 0.65625 -1.648438 0.65625 -1.296875 C 0.65625 -0.953125 0.707031 -0.691406 0.8125 -0.515625 C 0.925781 -0.347656 1.101562 -0.265625 1.34375 -0.265625 C 1.601562 -0.265625 1.785156 -0.347656 1.890625 -0.515625 C 2.003906 -0.679688 2.0625 -0.941406 2.0625 -1.296875 Z M 2.0625 -1.296875 "/></g></g><g style="fill:#00bf63;fill-opacity:1;"><g transform="translate(11.808722, 22.767245)"><path style="stroke:none" d="M 0.75 -2.59375 L 0.75 -0.953125 C 0.75 -0.773438 0.765625 -0.640625 0.796875 -0.546875 C 0.835938 -0.453125 0.894531 -0.382812 0.96875 -0.34375 C 1.039062 -0.300781 1.144531 -0.28125 1.28125 -0.28125 C 1.488281 -0.28125 1.648438 -0.351562 1.765625 -0.5 C 1.890625 -0.644531 1.953125 -0.84375 1.953125 -1.09375 L 1.953125 -2.59375 L 2.390625 -2.59375 L 2.390625 -0.546875 C 2.390625 -0.242188 2.394531 -0.0625 2.40625 0 L 2 0 C 2 -0.0078125 1.992188 -0.03125 1.984375 -0.0625 C 1.984375 -0.101562 1.984375 -0.144531 1.984375 -0.1875 C 1.984375 -0.226562 1.976562 -0.3125 1.96875 -0.4375 C 1.875 -0.257812 1.757812 -0.132812 1.625 -0.0625 C 1.5 0.0078125 1.335938 0.046875 1.140625 0.046875 C 0.859375 0.046875 0.648438 -0.0195312 0.515625 -0.15625 C 0.378906 -0.300781 0.3125 -0.535156 0.3125 -0.859375 L 0.3125 -2.59375 Z M 0.75 -2.59375 "/></g></g><g style="fill:#00bf63;fill-opacity:1;"><g transform="translate(14.338981, 22.767245)"><path style="stroke:none" d="M 0.34375 0 L 0.34375 -1.984375 C 0.34375 -2.171875 0.335938 -2.375 0.328125 -2.59375 L 0.734375 -2.59375 C 0.742188 -2.300781 0.75 -2.125 0.75 -2.0625 L 0.765625 -2.0625 C 0.828125 -2.28125 0.90625 -2.429688 1 -2.515625 C 1.09375 -2.597656 1.21875 -2.640625 1.375 -2.640625 C 1.4375 -2.640625 1.492188 -2.628906 1.546875 -2.609375 L 1.546875 -2.21875 C 1.492188 -2.238281 1.421875 -2.25 1.328125 -2.25 C 1.140625 -2.25 1 -2.171875 0.90625 -2.015625 C 0.8125 -1.859375 0.765625 -1.632812 0.765625 -1.34375 L 0.765625 0 Z M 0.34375 0 "/></g></g><g style="fill:#00bf63;fill-opacity:1;"><g transform="translate(15.775299, 22.767245)"><path style="stroke:none" d=""/></g></g><g style="fill:#00bf63;fill-opacity:1;"><g transform="translate(16.941123, 22.767245)"><path style="stroke:none" d="M 2.28125 -0.71875 C 2.28125 -0.46875 2.1875 -0.273438 2 -0.140625 C 1.8125 -0.015625 1.550781 0.046875 1.21875 0.046875 C 0.894531 0.046875 0.644531 -0.00390625 0.46875 -0.109375 C 0.300781 -0.210938 0.191406 -0.378906 0.140625 -0.609375 L 0.515625 -0.6875 C 0.554688 -0.539062 0.632812 -0.4375 0.75 -0.375 C 0.863281 -0.3125 1.019531 -0.28125 1.21875 -0.28125 C 1.4375 -0.28125 1.597656 -0.3125 1.703125 -0.375 C 1.804688 -0.445312 1.859375 -0.550781 1.859375 -0.6875 C 1.859375 -0.789062 1.820312 -0.875 1.75 -0.9375 C 1.675781 -1 1.5625 -1.050781 1.40625 -1.09375 L 1.109375 -1.171875 C 0.859375 -1.234375 0.679688 -1.296875 0.578125 -1.359375 C 0.472656 -1.421875 0.390625 -1.492188 0.328125 -1.578125 C 0.265625 -1.671875 0.234375 -1.78125 0.234375 -1.90625 C 0.234375 -2.144531 0.316406 -2.320312 0.484375 -2.4375 C 0.660156 -2.5625 0.910156 -2.625 1.234375 -2.625 C 1.515625 -2.625 1.738281 -2.570312 1.90625 -2.46875 C 2.070312 -2.375 2.179688 -2.21875 2.234375 -2 L 1.84375 -1.953125 C 1.820312 -2.066406 1.757812 -2.15625 1.65625 -2.21875 C 1.550781 -2.28125 1.410156 -2.3125 1.234375 -2.3125 C 1.035156 -2.3125 0.890625 -2.28125 0.796875 -2.21875 C 0.703125 -2.15625 0.65625 -2.066406 0.65625 -1.953125 C 0.65625 -1.878906 0.675781 -1.816406 0.71875 -1.765625 C 0.757812 -1.722656 0.816406 -1.679688 0.890625 -1.640625 C 0.960938 -1.609375 1.117188 -1.5625 1.359375 -1.5 C 1.585938 -1.445312 1.75 -1.394531 1.84375 -1.34375 C 1.945312 -1.300781 2.03125 -1.25 2.09375 -1.1875 C 2.15625 -1.125 2.203125 -1.050781 2.234375 -0.96875 C 2.265625 -0.894531 2.28125 -0.8125 2.28125 -0.71875 Z M 2.28125 -0.71875 "/></g></g><g style="fill:#00bf63;fill-opacity:1;"><g transform="translate(19.196102, 22.767245)"><path style="stroke:none" d="M 0.984375 0.046875 C 0.722656 0.046875 0.523438 -0.0195312 0.390625 -0.15625 C 0.265625 -0.289062 0.203125 -0.476562 0.203125 -0.71875 C 0.203125 -0.988281 0.289062 -1.195312 0.46875 -1.34375 C 0.644531 -1.488281 0.929688 -1.566406 1.328125 -1.578125 L 1.90625 -1.578125 L 1.90625 -1.71875 C 1.90625 -1.925781 1.859375 -2.078125 1.765625 -2.171875 C 1.679688 -2.265625 1.546875 -2.3125 1.359375 -2.3125 C 1.160156 -2.3125 1.015625 -2.273438 0.921875 -2.203125 C 0.835938 -2.140625 0.789062 -2.039062 0.78125 -1.90625 L 0.328125 -1.9375 C 0.398438 -2.40625 0.742188 -2.640625 1.359375 -2.640625 C 1.691406 -2.640625 1.9375 -2.5625 2.09375 -2.40625 C 2.257812 -2.257812 2.34375 -2.046875 2.34375 -1.765625 L 2.34375 -0.65625 C 2.34375 -0.519531 2.359375 -0.421875 2.390625 -0.359375 C 2.429688 -0.296875 2.5 -0.265625 2.59375 -0.265625 C 2.632812 -0.265625 2.679688 -0.269531 2.734375 -0.28125 L 2.734375 -0.015625 C 2.617188 0.015625 2.503906 0.03125 2.390625 0.03125 C 2.234375 0.03125 2.117188 -0.0078125 2.046875 -0.09375 C 1.972656 -0.1875 1.929688 -0.320312 1.921875 -0.5 L 1.90625 -0.5 C 1.800781 -0.300781 1.675781 -0.160156 1.53125 -0.078125 C 1.382812 0.00390625 1.203125 0.046875 0.984375 0.046875 Z M 1.09375 -0.28125 C 1.25 -0.28125 1.390625 -0.3125 1.515625 -0.375 C 1.640625 -0.445312 1.734375 -0.546875 1.796875 -0.671875 C 1.867188 -0.804688 1.90625 -0.9375 1.90625 -1.0625 L 1.90625 -1.28125 L 1.4375 -1.265625 C 1.238281 -1.265625 1.082031 -1.242188 0.96875 -1.203125 C 0.863281 -1.171875 0.785156 -1.113281 0.734375 -1.03125 C 0.679688 -0.945312 0.65625 -0.84375 0.65625 -0.71875 C 0.65625 -0.570312 0.691406 -0.460938 0.765625 -0.390625 C 0.835938 -0.316406 0.945312 -0.28125 1.09375 -0.28125 Z M 1.09375 -0.28125 "/></g></g><g style="fill:#00bf63;fill-opacity:1;"><g transform="translate(21.726361, 22.767245)"><path style="stroke:none" d="M 1.328125 -0.015625 C 1.179688 0.015625 1.035156 0.03125 0.890625 0.03125 C 0.546875 0.03125 0.375 -0.160156 0.375 -0.546875 L 0.375 -2.28125 L 0.078125 -2.28125 L 0.078125 -2.59375 L 0.390625 -2.59375 L 0.515625 -3.171875 L 0.8125 -3.171875 L 0.8125 -2.59375 L 1.28125 -2.59375 L 1.28125 -2.28125 L 0.8125 -2.28125 L 0.8125 -0.640625 C 0.8125 -0.515625 0.828125 -0.425781 0.859375 -0.375 C 0.898438 -0.320312 0.972656 -0.296875 1.078125 -0.296875 C 1.140625 -0.296875 1.222656 -0.3125 1.328125 -0.34375 Z M 1.328125 -0.015625 "/></g></g><g style="fill:#00bf63;fill-opacity:1;"><g transform="translate(22.892186, 22.767245)"><path style="stroke:none" d="M 0.328125 -3.140625 L 0.328125 -3.5625 L 0.765625 -3.5625 L 0.765625 -3.140625 Z M 0.328125 0 L 0.328125 -2.59375 L 0.765625 -2.59375 L 0.765625 0 Z M 0.328125 0 "/></g></g><g style="fill:#00bf63;fill-opacity:1;"><g transform="translate(23.785124, 22.767245)"><path style="stroke:none" d="M 2.28125 -0.71875 C 2.28125 -0.46875 2.1875 -0.273438 2 -0.140625 C 1.8125 -0.015625 1.550781 0.046875 1.21875 0.046875 C 0.894531 0.046875 0.644531 -0.00390625 0.46875 -0.109375 C 0.300781 -0.210938 0.191406 -0.378906 0.140625 -0.609375 L 0.515625 -0.6875 C 0.554688 -0.539062 0.632812 -0.4375 0.75 -0.375 C 0.863281 -0.3125 1.019531 -0.28125 1.21875 -0.28125 C 1.4375 -0.28125 1.597656 -0.3125 1.703125 -0.375 C 1.804688 -0.445312 1.859375 -0.550781 1.859375 -0.6875 C 1.859375 -0.789062 1.820312 -0.875 1.75 -0.9375 C 1.675781 -1 1.5625 -1.050781 1.40625 -1.09375 L 1.109375 -1.171875 C 0.859375 -1.234375 0.679688 -1.296875 0.578125 -1.359375 C 0.472656 -1.421875 0.390625 -1.492188 0.328125 -1.578125 C 0.265625 -1.671875 0.234375 -1.78125 0.234375 -1.90625 C 0.234375 -2.144531 0.316406 -2.320312 0.484375 -2.4375 C 0.660156 -2.5625 0.910156 -2.625 1.234375 -2.625 C 1.515625 -2.625 1.738281 -2.570312 1.90625 -2.46875 C 2.070312 -2.375 2.179688 -2.21875 2.234375 -2 L 1.84375 -1.953125 C 1.820312 -2.066406 1.757812 -2.15625 1.65625 -2.21875 C 1.550781 -2.28125 1.410156 -2.3125 1.234375 -2.3125 C 1.035156 -2.3125 0.890625 -2.28125 0.796875 -2.21875 C 0.703125 -2.15625 0.65625 -2.066406 0.65625 -1.953125 C 0.65625 -1.878906 0.675781 -1.816406 0.71875 -1.765625 C 0.757812 -1.722656 0.816406 -1.679688 0.890625 -1.640625 C 0.960938 -1.609375 1.117188 -1.5625 1.359375 -1.5 C 1.585938 -1.445312 1.75 -1.394531 1.84375 -1.34375 C 1.945312 -1.300781 2.03125 -1.25 2.09375 -1.1875 C 2.15625 -1.125 2.203125 -1.050781 2.234375 -0.96875 C 2.265625 -0.894531 2.28125 -0.8125 2.28125 -0.71875 Z M 2.28125 -0.71875 "/></g></g><g style="fill:#00bf63;fill-opacity:1;"><g transform="translate(26.040102, 22.767245)"><path style="stroke:none" d="M 0.859375 -2.28125 L 0.859375 0 L 0.4375 0 L 0.4375 -2.28125 L 0.0625 -2.28125 L 0.0625 -2.59375 L 0.4375 -2.59375 L 0.4375 -2.890625 C 0.4375 -3.117188 0.488281 -3.285156 0.59375 -3.390625 C 0.695312 -3.492188 0.851562 -3.546875 1.0625 -3.546875 C 1.1875 -3.546875 1.289062 -3.535156 1.375 -3.515625 L 1.375 -3.1875 C 1.300781 -3.207031 1.234375 -3.21875 1.171875 -3.21875 C 1.066406 -3.21875 0.988281 -3.1875 0.9375 -3.125 C 0.882812 -3.070312 0.859375 -2.972656 0.859375 -2.828125 L 0.859375 -2.59375 L 1.375 -2.59375 L 1.375 -2.28125 Z M 0.859375 -2.28125 "/></g></g><g style="fill:#00bf63;fill-opacity:1;"><g transform="translate(27.205927, 22.767245)"><path style="stroke:none" d="M 0.984375 0.046875 C 0.722656 0.046875 0.523438 -0.0195312 0.390625 -0.15625 C 0.265625 -0.289062 0.203125 -0.476562 0.203125 -0.71875 C 0.203125 -0.988281 0.289062 -1.195312 0.46875 -1.34375 C 0.644531 -1.488281 0.929688 -1.566406 1.328125 -1.578125 L 1.90625 -1.578125 L 1.90625 -1.71875 C 1.90625 -1.925781 1.859375 -2.078125 1.765625 -2.171875 C 1.679688 -2.265625 1.546875 -2.3125 1.359375 -2.3125 C 1.160156 -2.3125 1.015625 -2.273438 0.921875 -2.203125 C 0.835938 -2.140625 0.789062 -2.039062 0.78125 -1.90625 L 0.328125 -1.9375 C 0.398438 -2.40625 0.742188 -2.640625 1.359375 -2.640625 C 1.691406 -2.640625 1.9375 -2.5625 2.09375 -2.40625 C 2.257812 -2.257812 2.34375 -2.046875 2.34375 -1.765625 L 2.34375 -0.65625 C 2.34375 -0.519531 2.359375 -0.421875 2.390625 -0.359375 C 2.429688 -0.296875 2.5 -0.265625 2.59375 -0.265625 C 2.632812 -0.265625 2.679688 -0.269531 2.734375 -0.28125 L 2.734375 -0.015625 C 2.617188 0.015625 2.503906 0.03125 2.390625 0.03125 C 2.234375 0.03125 2.117188 -0.0078125 2.046875 -0.09375 C 1.972656 -0.1875 1.929688 -0.320312 1.921875 -0.5 L 1.90625 -0.5 C 1.800781 -0.300781 1.675781 -0.160156 1.53125 -0.078125 C 1.382812 0.00390625 1.203125 0.046875 0.984375 0.046875 Z M 1.09375 -0.28125 C 1.25 -0.28125 1.390625 -0.3125 1.515625 -0.375 C 1.640625 -0.445312 1.734375 -0.546875 1.796875 -0.671875 C 1.867188 -0.804688 1.90625 -0.9375 1.90625 -1.0625 L 1.90625 -1.28125 L 1.4375 -1.265625 C 1.238281 -1.265625 1.082031 -1.242188 0.96875 -1.203125 C 0.863281 -1.171875 0.785156 -1.113281 0.734375 -1.03125 C 0.679688 -0.945312 0.65625 -0.84375 0.65625 -0.71875 C 0.65625 -0.570312 0.691406 -0.460938 0.765625 -0.390625 C 0.835938 -0.316406 0.945312 -0.28125 1.09375 -0.28125 Z M 1.09375 -0.28125 "/></g></g><g style="fill:#00bf63;fill-opacity:1;"><g transform="translate(29.736186, 22.767245)"><path style="stroke:none" d="M 0.65625 -1.3125 C 0.65625 -0.96875 0.707031 -0.710938 0.8125 -0.546875 C 0.925781 -0.378906 1.09375 -0.296875 1.3125 -0.296875 C 1.46875 -0.296875 1.597656 -0.335938 1.703125 -0.421875 C 1.804688 -0.503906 1.867188 -0.628906 1.890625 -0.796875 L 2.328125 -0.765625 C 2.296875 -0.515625 2.1875 -0.316406 2 -0.171875 C 1.820312 -0.0234375 1.597656 0.046875 1.328125 0.046875 C 0.960938 0.046875 0.679688 -0.0664062 0.484375 -0.296875 C 0.296875 -0.523438 0.203125 -0.859375 0.203125 -1.296875 C 0.203125 -1.734375 0.296875 -2.066406 0.484375 -2.296875 C 0.679688 -2.523438 0.957031 -2.640625 1.3125 -2.640625 C 1.582031 -2.640625 1.804688 -2.570312 1.984375 -2.4375 C 2.160156 -2.300781 2.269531 -2.109375 2.3125 -1.859375 L 1.859375 -1.828125 C 1.835938 -1.972656 1.78125 -2.085938 1.6875 -2.171875 C 1.601562 -2.253906 1.476562 -2.296875 1.3125 -2.296875 C 1.082031 -2.296875 0.914062 -2.21875 0.8125 -2.0625 C 0.707031 -1.914062 0.65625 -1.664062 0.65625 -1.3125 Z M 0.65625 -1.3125 "/></g></g><g style="fill:#00bf63;fill-opacity:1;"><g transform="translate(31.991164, 22.767245)"><path style="stroke:none" d="M 1.328125 -0.015625 C 1.179688 0.015625 1.035156 0.03125 0.890625 0.03125 C 0.546875 0.03125 0.375 -0.160156 0.375 -0.546875 L 0.375 -2.28125 L 0.078125 -2.28125 L 0.078125 -2.59375 L 0.390625 -2.59375 L 0.515625 -3.171875 L 0.8125 -3.171875 L 0.8125 -2.59375 L 1.28125 -2.59375 L 1.28125 -2.28125 L 0.8125 -2.28125 L 0.8125 -0.640625 C 0.8125 -0.515625 0.828125 -0.425781 0.859375 -0.375 C 0.898438 -0.320312 0.972656 -0.296875 1.078125 -0.296875 C 1.140625 -0.296875 1.222656 -0.3125 1.328125 -0.34375 Z M 1.328125 -0.015625 "/></g></g><g style="fill:#00bf63;fill-opacity:1;"><g transform="translate(33.156989, 22.767245)"><path style="stroke:none" d="M 0.328125 -3.140625 L 0.328125 -3.5625 L 0.765625 -3.5625 L 0.765625 -3.140625 Z M 0.328125 0 L 0.328125 -2.59375 L 0.765625 -2.59375 L 0.765625 0 Z M 0.328125 0 "/></g></g><g style="fill:#00bf63;fill-opacity:1;"><g transform="translate(34.049927, 22.767245)"><path style="stroke:none" d="M 2.515625 -1.296875 C 2.515625 -0.847656 2.414062 -0.507812 2.21875 -0.28125 C 2.019531 -0.0625 1.734375 0.046875 1.359375 0.046875 C 0.972656 0.046875 0.679688 -0.0664062 0.484375 -0.296875 C 0.296875 -0.523438 0.203125 -0.859375 0.203125 -1.296875 C 0.203125 -2.191406 0.59375 -2.640625 1.375 -2.640625 C 1.769531 -2.640625 2.054688 -2.53125 2.234375 -2.3125 C 2.421875 -2.09375 2.515625 -1.753906 2.515625 -1.296875 Z M 2.0625 -1.296875 C 2.0625 -1.648438 2.007812 -1.910156 1.90625 -2.078125 C 1.800781 -2.242188 1.625 -2.328125 1.375 -2.328125 C 1.125 -2.328125 0.941406 -2.242188 0.828125 -2.078125 C 0.710938 -1.910156 0.65625 -1.648438 0.65625 -1.296875 C 0.65625 -0.953125 0.707031 -0.691406 0.8125 -0.515625 C 0.925781 -0.347656 1.101562 -0.265625 1.34375 -0.265625 C 1.601562 -0.265625 1.785156 -0.347656 1.890625 -0.515625 C 2.003906 -0.679688 2.0625 -0.941406 2.0625 -1.296875 Z M 2.0625 -1.296875 "/></g></g><g style="fill:#00bf63;fill-opacity:1;"><g transform="translate(36.580186, 22.767245)"><path style="stroke:none" d="M 1.96875 0 L 1.96875 -1.640625 C 1.96875 -1.816406 1.953125 -1.953125 1.921875 -2.046875 C 1.890625 -2.140625 1.835938 -2.207031 1.765625 -2.25 C 1.691406 -2.289062 1.582031 -2.3125 1.4375 -2.3125 C 1.226562 -2.3125 1.0625 -2.238281 0.9375 -2.09375 C 0.820312 -1.945312 0.765625 -1.75 0.765625 -1.5 L 0.765625 0 L 0.34375 0 L 0.34375 -2.03125 C 0.34375 -2.332031 0.335938 -2.519531 0.328125 -2.59375 L 0.734375 -2.59375 C 0.734375 -2.582031 0.734375 -2.554688 0.734375 -2.515625 C 0.734375 -2.484375 0.734375 -2.445312 0.734375 -2.40625 C 0.742188 -2.363281 0.75 -2.28125 0.75 -2.15625 L 0.765625 -2.15625 C 0.859375 -2.332031 0.96875 -2.457031 1.09375 -2.53125 C 1.226562 -2.601562 1.394531 -2.640625 1.59375 -2.640625 C 1.875 -2.640625 2.078125 -2.566406 2.203125 -2.421875 C 2.335938 -2.285156 2.40625 -2.054688 2.40625 -1.734375 L 2.40625 0 Z M 1.96875 0 "/></g></g><g style="fill:#00bf63;fill-opacity:1;"><g transform="translate(39.110445, 22.767245)"><path style="stroke:none" d=""/></g></g><g style="fill:#00bf63;fill-opacity:1;"><g transform="translate(40.27627, 22.767245)"><path style="stroke:none" d="M 0.328125 -3.140625 L 0.328125 -3.5625 L 0.765625 -3.5625 L 0.765625 -3.140625 Z M 0.328125 0 L 0.328125 -2.59375 L 0.765625 -2.59375 L 0.765625 0 Z M 0.328125 0 "/></g></g><g style="fill:#00bf63;fill-opacity:1;"><g transform="translate(41.169208, 22.767245)"><path style="stroke:none" d="M 2.28125 -0.71875 C 2.28125 -0.46875 2.1875 -0.273438 2 -0.140625 C 1.8125 -0.015625 1.550781 0.046875 1.21875 0.046875 C 0.894531 0.046875 0.644531 -0.00390625 0.46875 -0.109375 C 0.300781 -0.210938 0.191406 -0.378906 0.140625 -0.609375 L 0.515625 -0.6875 C 0.554688 -0.539062 0.632812 -0.4375 0.75 -0.375 C 0.863281 -0.3125 1.019531 -0.28125 1.21875 -0.28125 C 1.4375 -0.28125 1.597656 -0.3125 1.703125 -0.375 C 1.804688 -0.445312 1.859375 -0.550781 1.859375 -0.6875 C 1.859375 -0.789062 1.820312 -0.875 1.75 -0.9375 C 1.675781 -1 1.5625 -1.050781 1.40625 -1.09375 L 1.109375 -1.171875 C 0.859375 -1.234375 0.679688 -1.296875 0.578125 -1.359375 C 0.472656 -1.421875 0.390625 -1.492188 0.328125 -1.578125 C 0.265625 -1.671875 0.234375 -1.78125 0.234375 -1.90625 C 0.234375 -2.144531 0.316406 -2.320312 0.484375 -2.4375 C 0.660156 -2.5625 0.910156 -2.625 1.234375 -2.625 C 1.515625 -2.625 1.738281 -2.570312 1.90625 -2.46875 C 2.070312 -2.375 2.179688 -2.21875 2.234375 -2 L 1.84375 -1.953125 C 1.820312 -2.066406 1.757812 -2.15625 1.65625 -2.21875 C 1.550781 -2.28125 1.410156 -2.3125 1.234375 -2.3125 C 1.035156 -2.3125 0.890625 -2.28125 0.796875 -2.21875 C 0.703125 -2.15625 0.65625 -2.066406 0.65625 -1.953125 C 0.65625 -1.878906 0.675781 -1.816406 0.71875 -1.765625 C 0.757812 -1.722656 0.816406 -1.679688 0.890625 -1.640625 C 0.960938 -1.609375 1.117188 -1.5625 1.359375 -1.5 C 1.585938 -1.445312 1.75 -1.394531 1.84375 -1.34375 C 1.945312 -1.300781 2.03125 -1.25 2.09375 -1.1875 C 2.15625 -1.125 2.203125 -1.050781 2.234375 -0.96875 C 2.265625 -0.894531 2.28125 -0.8125 2.28125 -0.71875 Z M 2.28125 -0.71875 "/></g></g><g style="fill:#00bf63;fill-opacity:1;"><g transform="translate(43.424186, 22.767245)"><path style="stroke:none" d=""/></g></g><g style="fill:#00bf63;fill-opacity:1;"><g transform="translate(44.590011, 22.767245)"><path style="stroke:none" d="M 2.515625 -1.296875 C 2.515625 -0.847656 2.414062 -0.507812 2.21875 -0.28125 C 2.019531 -0.0625 1.734375 0.046875 1.359375 0.046875 C 0.972656 0.046875 0.679688 -0.0664062 0.484375 -0.296875 C 0.296875 -0.523438 0.203125 -0.859375 0.203125 -1.296875 C 0.203125 -2.191406 0.59375 -2.640625 1.375 -2.640625 C 1.769531 -2.640625 2.054688 -2.53125 2.234375 -2.3125 C 2.421875 -2.09375 2.515625 -1.753906 2.515625 -1.296875 Z M 2.0625 -1.296875 C 2.0625 -1.648438 2.007812 -1.910156 1.90625 -2.078125 C 1.800781 -2.242188 1.625 -2.328125 1.375 -2.328125 C 1.125 -2.328125 0.941406 -2.242188 0.828125 -2.078125 C 0.710938 -1.910156 0.65625 -1.648438 0.65625 -1.296875 C 0.65625 -0.953125 0.707031 -0.691406 0.8125 -0.515625 C 0.925781 -0.347656 1.101562 -0.265625 1.34375 -0.265625 C 1.601562 -0.265625 1.785156 -0.347656 1.890625 -0.515625 C 2.003906 -0.679688 2.0625 -0.941406 2.0625 -1.296875 Z M 2.0625 -1.296875 "/></g></g><g style="fill:#00bf63;fill-opacity:1;"><g transform="translate(47.12027, 22.767245)"><path style="stroke:none" d="M 0.75 -2.59375 L 0.75 -0.953125 C 0.75 -0.773438 0.765625 -0.640625 0.796875 -0.546875 C 0.835938 -0.453125 0.894531 -0.382812 0.96875 -0.34375 C 1.039062 -0.300781 1.144531 -0.28125 1.28125 -0.28125 C 1.488281 -0.28125 1.648438 -0.351562 1.765625 -0.5 C 1.890625 -0.644531 1.953125 -0.84375 1.953125 -1.09375 L 1.953125 -2.59375 L 2.390625 -2.59375 L 2.390625 -0.546875 C 2.390625 -0.242188 2.394531 -0.0625 2.40625 0 L 2 0 C 2 -0.0078125 1.992188 -0.03125 1.984375 -0.0625 C 1.984375 -0.101562 1.984375 -0.144531 1.984375 -0.1875 C 1.984375 -0.226562 1.976562 -0.3125 1.96875 -0.4375 C 1.875 -0.257812 1.757812 -0.132812 1.625 -0.0625 C 1.5 0.0078125 1.335938 0.046875 1.140625 0.046875 C 0.859375 0.046875 0.648438 -0.0195312 0.515625 -0.15625 C 0.378906 -0.300781 0.3125 -0.535156 0.3125 -0.859375 L 0.3125 -2.59375 Z M 0.75 -2.59375 "/></g></g><g style="fill:#00bf63;fill-opacity:1;"><g transform="translate(49.650529, 22.767245)"><path style="stroke:none" d="M 0.34375 0 L 0.34375 -1.984375 C 0.34375 -2.171875 0.335938 -2.375 0.328125 -2.59375 L 0.734375 -2.59375 C 0.742188 -2.300781 0.75 -2.125 0.75 -2.0625 L 0.765625 -2.0625 C 0.828125 -2.28125 0.90625 -2.429688 1 -2.515625 C 1.09375 -2.597656 1.21875 -2.640625 1.375 -2.640625 C 1.4375 -2.640625 1.492188 -2.628906 1.546875 -2.609375 L 1.546875 -2.21875 C 1.492188 -2.238281 1.421875 -2.25 1.328125 -2.25 C 1.140625 -2.25 1 -2.171875 0.90625 -2.015625 C 0.8125 -1.859375 0.765625 -1.632812 0.765625 -1.34375 L 0.765625 0 Z M 0.34375 0 "/></g></g><g style="fill:#00bf63;fill-opacity:1;"><g transform="translate(51.086847, 22.767245)"><path style="stroke:none" d=""/></g></g><g style="fill:#00bf63;fill-opacity:1;"><g transform="translate(52.252672, 22.767245)"><path style="stroke:none" d="M 0.34375 0 L 0.34375 -1.984375 C 0.34375 -2.171875 0.335938 -2.375 0.328125 -2.59375 L 0.734375 -2.59375 C 0.742188 -2.300781 0.75 -2.125 0.75 -2.0625 L 0.765625 -2.0625 C 0.828125 -2.28125 0.90625 -2.429688 1 -2.515625 C 1.09375 -2.597656 1.21875 -2.640625 1.375 -2.640625 C 1.4375 -2.640625 1.492188 -2.628906 1.546875 -2.609375 L 1.546875 -2.21875 C 1.492188 -2.238281 1.421875 -2.25 1.328125 -2.25 C 1.140625 -2.25 1 -2.171875 0.90625 -2.015625 C 0.8125 -1.859375 0.765625 -1.632812 0.765625 -1.34375 L 0.765625 0 Z M 0.34375 0 "/></g></g><g style="fill:#00bf63;fill-opacity:1;"><g transform="translate(53.68899, 22.767245)"><path style="stroke:none" d="M 0.65625 -1.203125 C 0.65625 -0.910156 0.71875 -0.679688 0.84375 -0.515625 C 0.96875 -0.359375 1.148438 -0.28125 1.390625 -0.28125 C 1.578125 -0.28125 1.722656 -0.316406 1.828125 -0.390625 C 1.941406 -0.460938 2.019531 -0.554688 2.0625 -0.671875 L 2.4375 -0.5625 C 2.28125 -0.15625 1.929688 0.046875 1.390625 0.046875 C 1.003906 0.046875 0.707031 -0.0664062 0.5 -0.296875 C 0.300781 -0.523438 0.203125 -0.863281 0.203125 -1.3125 C 0.203125 -1.738281 0.300781 -2.066406 0.5 -2.296875 C 0.707031 -2.523438 1 -2.640625 1.375 -2.640625 C 2.132812 -2.640625 2.515625 -2.179688 2.515625 -1.265625 L 2.515625 -1.203125 Z M 2.0625 -1.53125 C 2.039062 -1.800781 1.972656 -2 1.859375 -2.125 C 1.742188 -2.257812 1.578125 -2.328125 1.359375 -2.328125 C 1.148438 -2.328125 0.984375 -2.253906 0.859375 -2.109375 C 0.742188 -1.972656 0.679688 -1.78125 0.671875 -1.53125 Z M 2.0625 -1.53125 "/></g></g><g style="fill:#00bf63;fill-opacity:1;"><g transform="translate(56.219249, 22.767245)"><path style="stroke:none" d="M 0.65625 -1.3125 C 0.65625 -0.96875 0.707031 -0.710938 0.8125 -0.546875 C 0.925781 -0.378906 1.09375 -0.296875 1.3125 -0.296875 C 1.46875 -0.296875 1.597656 -0.335938 1.703125 -0.421875 C 1.804688 -0.503906 1.867188 -0.628906 1.890625 -0.796875 L 2.328125 -0.765625 C 2.296875 -0.515625 2.1875 -0.316406 2 -0.171875 C 1.820312 -0.0234375 1.597656 0.046875 1.328125 0.046875 C 0.960938 0.046875 0.679688 -0.0664062 0.484375 -0.296875 C 0.296875 -0.523438 0.203125 -0.859375 0.203125 -1.296875 C 0.203125 -1.734375 0.296875 -2.066406 0.484375 -2.296875 C 0.679688 -2.523438 0.957031 -2.640625 1.3125 -2.640625 C 1.582031 -2.640625 1.804688 -2.570312 1.984375 -2.4375 C 2.160156 -2.300781 2.269531 -2.109375 2.3125 -1.859375 L 1.859375 -1.828125 C 1.835938 -1.972656 1.78125 -2.085938 1.6875 -2.171875 C 1.601562 -2.253906 1.476562 -2.296875 1.3125 -2.296875 C 1.082031 -2.296875 0.914062 -2.21875 0.8125 -2.0625 C 0.707031 -1.914062 0.65625 -1.664062 0.65625 -1.3125 Z M 0.65625 -1.3125 "/></g></g><g style="fill:#00bf63;fill-opacity:1;"><g transform="translate(58.474227, 22.767245)"><path style="stroke:none" d="M 0.328125 -3.140625 L 0.328125 -3.5625 L 0.765625 -3.5625 L 0.765625 -3.140625 Z M 0.328125 0 L 0.328125 -2.59375 L 0.765625 -2.59375 L 0.765625 0 Z M 0.328125 0 "/></g></g><g style="fill:#00bf63;fill-opacity:1;"><g transform="translate(59.367165, 22.767245)"><path style="stroke:none" d="M 2.515625 -1.3125 C 2.515625 -0.40625 2.195312 0.046875 1.5625 0.046875 C 1.164062 0.046875 0.898438 -0.101562 0.765625 -0.40625 L 0.75 -0.40625 C 0.757812 -0.394531 0.765625 -0.257812 0.765625 0 L 0.765625 1.015625 L 0.328125 1.015625 L 0.328125 -2.0625 C 0.328125 -2.332031 0.320312 -2.507812 0.3125 -2.59375 L 0.734375 -2.59375 C 0.734375 -2.582031 0.734375 -2.554688 0.734375 -2.515625 C 0.742188 -2.484375 0.75 -2.425781 0.75 -2.34375 C 0.75 -2.257812 0.75 -2.203125 0.75 -2.171875 L 0.765625 -2.171875 C 0.835938 -2.335938 0.9375 -2.457031 1.0625 -2.53125 C 1.195312 -2.601562 1.363281 -2.640625 1.5625 -2.640625 C 1.882812 -2.640625 2.125 -2.53125 2.28125 -2.3125 C 2.4375 -2.101562 2.515625 -1.769531 2.515625 -1.3125 Z M 2.0625 -1.296875 C 2.0625 -1.660156 2.015625 -1.914062 1.921875 -2.0625 C 1.828125 -2.21875 1.671875 -2.296875 1.453125 -2.296875 C 1.285156 -2.296875 1.148438 -2.257812 1.046875 -2.1875 C 0.953125 -2.125 0.878906 -2.015625 0.828125 -1.859375 C 0.785156 -1.703125 0.765625 -1.503906 0.765625 -1.265625 C 0.765625 -0.921875 0.816406 -0.664062 0.921875 -0.5 C 1.035156 -0.34375 1.210938 -0.265625 1.453125 -0.265625 C 1.671875 -0.265625 1.828125 -0.34375 1.921875 -0.5 C 2.015625 -0.664062 2.0625 -0.929688 2.0625 -1.296875 Z M 2.0625 -1.296875 "/></g></g><g style="fill:#00bf63;fill-opacity:1;"><g transform="translate(61.897424, 22.767245)"><path style="stroke:none" d="M 0.65625 -1.203125 C 0.65625 -0.910156 0.71875 -0.679688 0.84375 -0.515625 C 0.96875 -0.359375 1.148438 -0.28125 1.390625 -0.28125 C 1.578125 -0.28125 1.722656 -0.316406 1.828125 -0.390625 C 1.941406 -0.460938 2.019531 -0.554688 2.0625 -0.671875 L 2.4375 -0.5625 C 2.28125 -0.15625 1.929688 0.046875 1.390625 0.046875 C 1.003906 0.046875 0.707031 -0.0664062 0.5 -0.296875 C 0.300781 -0.523438 0.203125 -0.863281 0.203125 -1.3125 C 0.203125 -1.738281 0.300781 -2.066406 0.5 -2.296875 C 0.707031 -2.523438 1 -2.640625 1.375 -2.640625 C 2.132812 -2.640625 2.515625 -2.179688 2.515625 -1.265625 L 2.515625 -1.203125 Z M 2.0625 -1.53125 C 2.039062 -1.800781 1.972656 -2 1.859375 -2.125 C 1.742188 -2.257812 1.578125 -2.328125 1.359375 -2.328125 C 1.148438 -2.328125 0.984375 -2.253906 0.859375 -2.109375 C 0.742188 -1.972656 0.679688 -1.78125 0.671875 -1.53125 Z M 2.0625 -1.53125 "/></g></g><g style="fill:#00bf63;fill-opacity:1;"><g transform="translate(64.427683, 22.767245)"><path style="stroke:none" d="M 0.859375 -0.953125 L 0.5 -0.953125 L 0.453125 -3.375 L 0.921875 -3.375 Z M 0.4375 0 L 0.4375 -0.484375 L 0.90625 -0.484375 L 0.90625 0 Z M 0.4375 0 "/></g></g></g></svg>